<svg xmlns="http://www.w3.org/2000/svg" xmlns:xlink="http://www.w3.org/1999/xlink" width="500" zoomAndPan="magnify" viewBox="0 0 375 374.999991" height="500" preserveAspectRatio="xMidYMid meet" version="1.0"><defs><filter x="0%" y="0%" width="100%" height="100%" id="2568ce49b4"><feColorMatrix values="0 0 0 0 1 0 0 0 0 1 0 0 0 0 1 0 0 0 1 0" color-interpolation-filters="sRGB"/></filter><mask id="f4d0afc267"><g filter="url(#2568ce49b4)"><rect x="-37.5" width="450" fill="#000000" y="-37.499999" height="449.999989" fill-opacity="0.3"/></g></mask><clipPath id="953d946833"><path d="M 0.519531 1 L 46 1 L 46 106 L 0.519531 106 Z M 0.519531 1 " clip-rule="nonzero"/></clipPath><clipPath id="d72069cd9b"><rect x="0" width="47" y="0" height="107"/></clipPath><mask id="f33df202b2"><g filter="url(#2568ce49b4)"><rect x="-37.5" width="450" fill="#000000" y="-37.499999" height="449.999989" fill-opacity="0.3"/></g></mask><clipPath id="0b19111fe3"><path d="M 0.480469 0.199219 L 27.359375 0.199219 L 27.359375 15 L 0.480469 15 Z M 0.480469 0.199219 " clip-rule="nonzero"/></clipPath><clipPath id="7992c0095d"><rect x="0" width="28" y="0" height="16"/></clipPath><mask id="b0479452f2"><g filter="url(#2568ce49b4)"><rect x="-37.5" width="450" fill="#000000" y="-37.499999" height="449.999989" fill-opacity="0.3"/></g></mask><clipPath id="5e672fa004"><path d="M 0.238281 0.441406 L 51.839844 0.441406 L 51.839844 106.519531 L 0.238281 106.519531 Z M 0.238281 0.441406 " clip-rule="nonzero"/></clipPath><clipPath id="1b7da3e424"><rect x="0" width="52" y="0" height="107"/></clipPath><mask id="f3d3896096"><g filter="url(#2568ce49b4)"><rect x="-37.5" width="450" fill="#000000" y="-37.499999" height="449.999989" fill-opacity="0.3"/></g></mask><clipPath id="b962bbe263"><path d="M 1 1 L 18.71875 1 L 18.71875 4 L 1 4 Z M 1 1 " clip-rule="nonzero"/></clipPath><clipPath id="a8e3b90896"><rect x="0" width="19" y="0" height="5"/></clipPath><mask id="4eb97965d3"><g filter="url(#2568ce49b4)"><rect x="-37.5" width="450" fill="#000000" y="-37.499999" height="449.999989" fill-opacity="0.3"/></g></mask><clipPath id="a9bfbe8c57"><path d="M 0.71875 1 L 9 1 L 9 9.359375 L 0.71875 9.359375 Z M 0.71875 1 " clip-rule="nonzero"/></clipPath><clipPath id="8ec1b57954"><rect x="0" width="10" y="0" height="10"/></clipPath><mask id="5bcfd7b941"><g filter="url(#2568ce49b4)"><rect x="-37.5" width="450" fill="#000000" y="-37.499999" height="449.999989" fill-opacity="0.19"/></g></mask><clipPath id="96af274a44"><path d="M 1 0.441406 L 66.800781 0.441406 L 66.800781 54.199219 L 1 54.199219 Z M 1 0.441406 " clip-rule="nonzero"/></clipPath><clipPath id="8cc2e815aa"><rect x="0" width="67" y="0" height="55"/></clipPath><mask id="13f2e2f5d5"><g filter="url(#2568ce49b4)"><rect x="-37.5" width="450" fill="#000000" y="-37.499999" height="449.999989" fill-opacity="0.19"/></g></mask><clipPath id="e05d77be61"><path d="M 0.839844 1 L 66.359375 1 L 66.359375 49.519531 L 0.839844 49.519531 Z M 0.839844 1 " clip-rule="nonzero"/></clipPath><clipPath id="7fac4445ec"><rect x="0" width="67" y="0" height="50"/></clipPath><mask id="bc0eb4cc80"><g filter="url(#2568ce49b4)"><rect x="-37.5" width="450" fill="#000000" y="-37.499999" height="449.999989" fill-opacity="0.19"/></g></mask><clipPath id="d059b022a0"><path d="M 0 0.519531 L 55.921875 0.519531 L 55.921875 69.640625 L 0 69.640625 Z M 0 0.519531 " clip-rule="nonzero"/></clipPath><clipPath id="ce3280df05"><rect x="0" width="56" y="0" height="70"/></clipPath><mask id="79bbc711d2"><g filter="url(#2568ce49b4)"><rect x="-37.5" width="450" fill="#000000" y="-37.499999" height="449.999989" fill-opacity="0.19"/></g></mask><clipPath id="a8f960c364"><path d="M 0 0.71875 L 6 0.71875 L 6 21.839844 L 0 21.839844 Z M 0 0.71875 " clip-rule="nonzero"/></clipPath><clipPath id="d24ebc4815"><rect x="0" width="7" y="0" height="22"/></clipPath><mask id="4c6a667ed8"><g filter="url(#2568ce49b4)"><rect x="-37.5" width="450" fill="#000000" y="-37.499999" height="449.999989" fill-opacity="0.2"/></g></mask><clipPath id="7ac6b2284e"><path d="M 0.320312 0.238281 L 96.800781 0.238281 L 96.800781 66 L 0.320312 66 Z M 0.320312 0.238281 " clip-rule="nonzero"/></clipPath><clipPath id="60d4a5e85f"><rect x="0" width="97" y="0" height="66"/></clipPath><mask id="ecc3f633fa"><g filter="url(#2568ce49b4)"><rect x="-37.5" width="450" fill="#000000" y="-37.499999" height="449.999989" fill-opacity="0.2"/></g></mask><clipPath id="9e67096611"><path d="M 1 0.28125 L 27.28125 0.28125 L 27.28125 22 L 1 22 Z M 1 0.28125 " clip-rule="nonzero"/></clipPath><clipPath id="0576a31f61"><rect x="0" width="28" y="0" height="23"/></clipPath><mask id="9ffe00e66e"><g filter="url(#2568ce49b4)"><rect x="-37.5" width="450" fill="#000000" y="-37.499999" height="449.999989" fill-opacity="0.2"/></g></mask><clipPath id="02b0932e11"><path d="M 1 5 L 107.28125 5 L 107.28125 23.519531 L 1 23.519531 Z M 1 5 " clip-rule="nonzero"/></clipPath><clipPath id="5f8bdb0159"><rect x="0" width="108" y="0" height="24"/></clipPath><mask id="3ad510a35d"><g filter="url(#2568ce49b4)"><rect x="-37.5" width="450" fill="#000000" y="-37.499999" height="449.999989" fill-opacity="0.32"/></g></mask><clipPath id="fbbeb6d509"><path d="M 1 0.480469 L 136 0.480469 L 136 45.601562 L 1 45.601562 Z M 1 0.480469 " clip-rule="nonzero"/></clipPath><clipPath id="70a373c299"><rect x="0" width="136" y="0" height="46"/></clipPath><mask id="d67a962378"><g filter="url(#2568ce49b4)"><rect x="-37.5" width="450" fill="#000000" y="-37.499999" height="449.999989" fill-opacity="0.31"/></g></mask><clipPath id="42776c7cc1"><path d="M 1 1 L 136 1 L 136 25.601562 L 1 25.601562 Z M 1 1 " clip-rule="nonzero"/></clipPath><clipPath id="40022daaf2"><rect x="0" width="136" y="0" height="26"/></clipPath><mask id="6c7da75e4c"><g filter="url(#2568ce49b4)"><rect x="-37.5" width="450" fill="#000000" y="-37.499999" height="449.999989" fill-opacity="0.44"/></g></mask><clipPath id="6c348f1d10"><path d="M 0.078125 0.761719 L 12.558594 0.761719 L 12.558594 12.761719 L 0.078125 12.761719 Z M 0.078125 0.761719 " clip-rule="nonzero"/></clipPath><clipPath id="ef2de87e2c"><rect x="0" width="13" y="0" height="13"/></clipPath><mask id="5362f1d246"><g filter="url(#2568ce49b4)"><rect x="-37.5" width="450" fill="#000000" y="-37.499999" height="449.999989" fill-opacity="0.29"/></g></mask><clipPath id="d56ffe4fa8"><path d="M 0.761719 1 L 178.121094 1 L 178.121094 36.078125 L 0.761719 36.078125 Z M 0.761719 1 " clip-rule="nonzero"/></clipPath><clipPath id="20901d6ba9"><rect x="0" width="179" y="0" height="37"/></clipPath><mask id="95e7b7cbbd"><g filter="url(#2568ce49b4)"><rect x="-37.5" width="450" fill="#000000" y="-37.499999" height="449.999989" fill-opacity="0.29"/></g></mask><clipPath id="6d8aef0cd6"><path d="M 0.078125 0.359375 L 66.320312 0.359375 L 66.320312 66.839844 L 0.078125 66.839844 Z M 0.078125 0.359375 " clip-rule="nonzero"/></clipPath><clipPath id="a02dce06c5"><rect x="0" width="67" y="0" height="67"/></clipPath><mask id="7a9aa43d29"><g filter="url(#2568ce49b4)"><rect x="-37.5" width="450" fill="#000000" y="-37.499999" height="449.999989" fill-opacity="0.27"/></g></mask><clipPath id="ccbc918f11"><path d="M 0.558594 0.199219 L 75.679688 0.199219 L 75.679688 16 L 0.558594 16 Z M 0.558594 0.199219 " clip-rule="nonzero"/></clipPath><clipPath id="4e6a8ba491"><rect x="0" width="76" y="0" height="17"/></clipPath></defs><rect x="-37.5" width="450" fill="#ffffff" y="-37.499999" height="449.999989" fill-opacity="1"/><rect x="-37.5" width="450" fill="#ffffff" y="-37.499999" height="449.999989" fill-opacity="1"/><path fill="#e89105" d="M 270.921875 187.3125 C 270.921875 188.726562 270.886719 190.140625 270.820312 191.554688 C 270.75 192.96875 270.644531 194.378906 270.507812 195.789062 C 270.367188 197.199219 270.195312 198.601562 269.988281 200.003906 C 269.777344 201.402344 269.535156 202.796875 269.261719 204.183594 C 268.984375 205.574219 268.675781 206.953125 268.332031 208.328125 C 267.988281 209.699219 267.609375 211.0625 267.199219 212.417969 C 266.789062 213.773438 266.34375 215.117188 265.867188 216.449219 C 265.390625 217.78125 264.878906 219.101562 264.339844 220.410156 C 263.796875 221.71875 263.222656 223.011719 262.617188 224.289062 C 262.011719 225.570312 261.378906 226.832031 260.710938 228.082031 C 260.042969 229.332031 259.34375 230.5625 258.617188 231.773438 C 257.890625 232.988281 257.132812 234.183594 256.347656 235.363281 C 255.558594 236.539062 254.746094 237.695312 253.902344 238.832031 C 253.058594 239.96875 252.1875 241.085938 251.289062 242.179688 C 250.394531 243.273438 249.46875 244.34375 248.519531 245.394531 C 247.566406 246.441406 246.589844 247.46875 245.589844 248.46875 C 244.589844 249.46875 243.566406 250.445312 242.515625 251.394531 C 241.46875 252.34375 240.394531 253.269531 239.300781 254.167969 C 238.207031 255.066406 237.09375 255.9375 235.957031 256.78125 C 234.820312 257.621094 233.660156 258.4375 232.484375 259.222656 C 231.308594 260.011719 230.113281 260.765625 228.898438 261.496094 C 227.683594 262.222656 226.453125 262.921875 225.203125 263.585938 C 223.957031 264.253906 222.691406 264.890625 221.414062 265.496094 C 220.132812 266.101562 218.839844 266.675781 217.53125 267.214844 C 216.222656 267.757812 214.902344 268.265625 213.570312 268.742188 C 212.238281 269.222656 210.894531 269.664062 209.539062 270.074219 C 208.1875 270.488281 206.820312 270.863281 205.449219 271.207031 C 204.078125 271.550781 202.695312 271.863281 201.308594 272.136719 C 199.917969 272.414062 198.523438 272.65625 197.125 272.863281 C 195.726562 273.070312 194.320312 273.246094 192.910156 273.382812 C 191.503906 273.523438 190.09375 273.625 188.679688 273.695312 C 187.265625 273.765625 185.851562 273.800781 184.433594 273.800781 C 183.019531 273.800781 181.605469 273.765625 180.191406 273.695312 C 178.777344 273.625 177.367188 273.523438 175.957031 273.382812 C 174.546875 273.246094 173.144531 273.070312 171.742188 272.863281 C 170.34375 272.65625 168.949219 272.414062 167.5625 272.136719 C 166.171875 271.863281 164.792969 271.550781 163.417969 271.207031 C 162.046875 270.863281 160.683594 270.488281 159.328125 270.074219 C 157.972656 269.664062 156.628906 269.222656 155.296875 268.742188 C 153.964844 268.265625 152.644531 267.757812 151.335938 267.214844 C 150.027344 266.675781 148.734375 266.101562 147.457031 265.496094 C 146.175781 264.890625 144.914062 264.253906 143.664062 263.585938 C 142.414062 262.921875 141.183594 262.222656 139.96875 261.496094 C 138.757812 260.765625 137.5625 260.011719 136.382812 259.222656 C 135.207031 258.4375 134.050781 257.621094 132.914062 256.78125 C 131.777344 255.9375 130.660156 255.066406 129.566406 254.167969 C 128.472656 253.269531 127.402344 252.34375 126.351562 251.394531 C 125.304688 250.445312 124.277344 249.46875 123.277344 248.46875 C 122.277344 247.46875 121.300781 246.441406 120.351562 245.394531 C 119.398438 244.34375 118.476562 243.273438 117.578125 242.179688 C 116.679688 241.085938 115.808594 239.96875 114.964844 238.832031 C 114.125 237.695312 113.308594 236.539062 112.523438 235.363281 C 111.734375 234.183594 110.976562 232.988281 110.25 231.773438 C 109.523438 230.5625 108.824219 229.332031 108.160156 228.082031 C 107.492188 226.832031 106.855469 225.570312 106.25 224.289062 C 105.644531 223.011719 105.070312 221.71875 104.53125 220.410156 C 103.988281 219.101562 103.480469 217.78125 103 216.449219 C 102.523438 215.117188 102.082031 213.773438 101.671875 212.417969 C 101.257812 211.0625 100.882812 209.699219 100.539062 208.328125 C 100.195312 206.953125 99.882812 205.574219 99.609375 204.183594 C 99.332031 202.796875 99.089844 201.402344 98.882812 200.003906 C 98.675781 198.601562 98.5 197.199219 98.363281 195.789062 C 98.222656 194.378906 98.121094 192.96875 98.050781 191.554688 C 97.980469 190.140625 97.945312 188.726562 97.945312 187.3125 C 97.945312 185.894531 97.980469 184.480469 98.050781 183.066406 C 98.121094 181.652344 98.222656 180.242188 98.363281 178.835938 C 98.5 177.425781 98.675781 176.019531 98.882812 174.621094 C 99.089844 173.222656 99.332031 171.828125 99.609375 170.4375 C 99.882812 169.050781 100.195312 167.667969 100.539062 166.296875 C 100.882812 164.921875 101.257812 163.558594 101.671875 162.207031 C 102.082031 160.851562 102.523438 159.507812 103 158.175781 C 103.480469 156.839844 103.988281 155.523438 104.53125 154.214844 C 105.070312 152.90625 105.644531 151.613281 106.25 150.332031 C 106.855469 149.054688 107.492188 147.789062 108.160156 146.542969 C 108.824219 145.292969 109.523438 144.0625 110.25 142.847656 C 110.976562 141.632812 111.734375 140.4375 112.523438 139.261719 C 113.308594 138.085938 114.121094 136.925781 114.964844 135.789062 C 115.808594 134.652344 116.679688 133.539062 117.578125 132.445312 C 118.476562 131.351562 119.398438 130.277344 120.351562 129.230469 C 121.300781 128.179688 122.277344 127.15625 123.277344 126.15625 C 124.277344 125.152344 125.304688 124.179688 126.351562 123.226562 C 127.402344 122.277344 128.472656 121.351562 129.566406 120.457031 C 130.660156 119.558594 131.777344 118.6875 132.914062 117.84375 C 134.050781 117 135.207031 116.183594 136.382812 115.398438 C 137.5625 114.613281 138.757812 113.855469 139.96875 113.128906 C 141.183594 112.398438 142.414062 111.703125 143.664062 111.035156 C 144.914062 110.367188 146.175781 109.730469 147.457031 109.128906 C 148.734375 108.523438 150.027344 107.949219 151.335938 107.40625 C 152.644531 106.863281 153.964844 106.355469 155.296875 105.878906 C 156.628906 105.402344 157.972656 104.957031 159.328125 104.546875 C 160.683594 104.136719 162.046875 103.757812 163.417969 103.414062 C 164.792969 103.070312 166.171875 102.761719 167.5625 102.484375 C 168.949219 102.207031 170.34375 101.96875 171.742188 101.757812 C 173.144531 101.550781 174.546875 101.378906 175.957031 101.238281 C 177.367188 101.101562 178.777344 100.996094 180.191406 100.925781 C 181.605469 100.859375 183.019531 100.824219 184.433594 100.824219 C 185.851562 100.824219 187.265625 100.859375 188.679688 100.925781 C 190.09375 100.996094 191.503906 101.101562 192.910156 101.238281 C 194.320312 101.378906 195.726562 101.550781 197.125 101.757812 C 198.523438 101.96875 199.917969 102.207031 201.308594 102.484375 C 202.695312 102.761719 204.078125 103.070312 205.449219 103.414062 C 206.820312 103.757812 208.1875 104.136719 209.539062 104.546875 C 210.894531 104.957031 212.238281 105.402344 213.570312 105.878906 C 214.902344 106.355469 216.222656 106.863281 217.53125 107.40625 C 218.839844 107.949219 220.132812 108.523438 221.414062 109.128906 C 222.691406 109.730469 223.957031 110.367188 225.203125 111.035156 C 226.453125 111.703125 227.683594 112.398438 228.898438 113.128906 C 230.113281 113.855469 231.308594 114.613281 232.484375 115.398438 C 233.660156 116.183594 234.820312 117 235.957031 117.84375 C 237.09375 118.6875 238.207031 119.558594 239.300781 120.457031 C 240.394531 121.351562 241.46875 122.277344 242.515625 123.226562 C 243.566406 124.179688 244.589844 125.152344 245.589844 126.15625 C 246.589844 127.15625 247.566406 128.179688 248.519531 129.230469 C 249.46875 130.277344 250.394531 131.351562 251.289062 132.445312 C 252.1875 133.539062 253.058594 134.652344 253.902344 135.789062 C 254.746094 136.925781 255.558594 138.085938 256.347656 139.261719 C 257.132812 140.4375 257.890625 141.632812 258.617188 142.847656 C 259.34375 144.0625 260.042969 145.292969 260.710938 146.542969 C 261.378906 147.789062 262.011719 149.054688 262.617188 150.332031 C 263.222656 151.613281 263.796875 152.90625 264.339844 154.214844 C 264.878906 155.523438 265.390625 156.839844 265.867188 158.175781 C 266.34375 159.507812 266.789062 160.851562 267.199219 162.207031 C 267.609375 163.558594 267.988281 164.921875 268.332031 166.296875 C 268.675781 167.667969 268.984375 169.050781 269.261719 170.4375 C 269.535156 171.828125 269.777344 173.222656 269.988281 174.621094 C 270.195312 176.019531 270.367188 177.425781 270.507812 178.835938 C 270.644531 180.242188 270.75 181.652344 270.820312 183.066406 C 270.886719 184.480469 270.921875 185.894531 270.921875 187.3125 Z M 270.921875 187.3125 " fill-opacity="1" fill-rule="nonzero"/><path fill="#442a00" d="M 266.222656 187.3125 C 266.222656 188.648438 266.1875 189.988281 266.125 191.324219 C 266.058594 192.660156 265.960938 193.996094 265.828125 195.328125 C 265.695312 196.660156 265.53125 197.988281 265.335938 199.3125 C 265.140625 200.636719 264.910156 201.953125 264.648438 203.265625 C 264.390625 204.582031 264.097656 205.886719 263.769531 207.183594 C 263.445312 208.484375 263.089844 209.773438 262.699219 211.054688 C 262.3125 212.335938 261.890625 213.605469 261.441406 214.863281 C 260.988281 216.125 260.507812 217.375 259.996094 218.609375 C 259.484375 219.847656 258.941406 221.070312 258.371094 222.28125 C 257.796875 223.488281 257.195312 224.683594 256.5625 225.867188 C 255.933594 227.046875 255.273438 228.210938 254.585938 229.359375 C 253.898438 230.507812 253.179688 231.636719 252.4375 232.75 C 251.695312 233.863281 250.925781 234.957031 250.125 236.03125 C 249.328125 237.105469 248.507812 238.164062 247.65625 239.195312 C 246.808594 240.230469 245.933594 241.246094 245.035156 242.238281 C 244.136719 243.226562 243.214844 244.199219 242.265625 245.144531 C 241.320312 246.089844 240.351562 247.011719 239.359375 247.910156 C 238.367188 248.8125 237.355469 249.683594 236.320312 250.535156 C 235.285156 251.382812 234.230469 252.207031 233.15625 253.003906 C 232.078125 253.800781 230.984375 254.570312 229.871094 255.316406 C 228.761719 256.058594 227.628906 256.773438 226.480469 257.460938 C 225.332031 258.152344 224.167969 258.808594 222.988281 259.441406 C 221.808594 260.074219 220.613281 260.675781 219.402344 261.246094 C 218.191406 261.820312 216.96875 262.359375 215.734375 262.875 C 214.496094 263.386719 213.246094 263.867188 211.988281 264.316406 C 210.726562 264.769531 209.457031 265.1875 208.175781 265.578125 C 206.894531 265.964844 205.605469 266.324219 204.308594 266.648438 C 203.007812 266.972656 201.703125 267.265625 200.390625 267.527344 C 199.078125 267.789062 197.757812 268.015625 196.433594 268.214844 C 195.109375 268.410156 193.78125 268.574219 192.449219 268.703125 C 191.117188 268.835938 189.785156 268.933594 188.449219 269 C 187.109375 269.066406 185.773438 269.097656 184.433594 269.097656 C 183.097656 269.097656 181.757812 269.066406 180.421875 269 C 179.085938 268.933594 177.75 268.835938 176.417969 268.703125 C 175.085938 268.574219 173.757812 268.410156 172.433594 268.214844 C 171.109375 268.015625 169.792969 267.789062 168.476562 267.527344 C 167.164062 267.265625 165.859375 266.972656 164.5625 266.648438 C 163.261719 266.324219 161.972656 265.964844 160.691406 265.578125 C 159.410156 265.1875 158.140625 264.769531 156.882812 264.316406 C 155.621094 263.867188 154.371094 263.386719 153.136719 262.875 C 151.898438 262.359375 150.675781 261.820312 149.464844 261.246094 C 148.253906 260.675781 147.058594 260.074219 145.878906 259.441406 C 144.699219 258.808594 143.535156 258.152344 142.386719 257.460938 C 141.238281 256.773438 140.109375 256.058594 138.996094 255.316406 C 137.882812 254.570312 136.789062 253.800781 135.714844 253.003906 C 134.636719 252.207031 133.582031 251.382812 132.550781 250.535156 C 131.515625 249.683594 130.5 248.8125 129.507812 247.910156 C 128.515625 247.011719 127.546875 246.089844 126.601562 245.144531 C 125.65625 244.199219 124.734375 243.226562 123.832031 242.238281 C 122.933594 241.246094 122.0625 240.230469 121.210938 239.195312 C 120.363281 238.164062 119.539062 237.105469 118.742188 236.03125 C 117.945312 234.957031 117.175781 233.863281 116.429688 232.75 C 115.6875 231.636719 114.972656 230.507812 114.28125 229.359375 C 113.59375 228.210938 112.933594 227.046875 112.304688 225.867188 C 111.671875 224.683594 111.070312 223.488281 110.5 222.28125 C 109.925781 221.070312 109.386719 219.847656 108.871094 218.609375 C 108.359375 217.375 107.878906 216.125 107.429688 214.863281 C 106.976562 213.605469 106.558594 212.335938 106.167969 211.054688 C 105.78125 209.773438 105.421875 208.484375 105.097656 207.183594 C 104.773438 205.886719 104.480469 204.582031 104.21875 203.265625 C 103.957031 201.953125 103.730469 200.636719 103.53125 199.3125 C 103.335938 197.988281 103.171875 196.660156 103.039062 195.328125 C 102.910156 193.996094 102.8125 192.660156 102.746094 191.324219 C 102.679688 189.988281 102.648438 188.648438 102.648438 187.3125 C 102.648438 185.972656 102.679688 184.636719 102.746094 183.296875 C 102.8125 181.960938 102.910156 180.628906 103.039062 179.296875 C 103.171875 177.960938 103.335938 176.636719 103.53125 175.3125 C 103.730469 173.988281 103.957031 172.667969 104.21875 171.355469 C 104.480469 170.042969 104.773438 168.738281 105.097656 167.4375 C 105.421875 166.140625 105.78125 164.851562 106.167969 163.570312 C 106.558594 162.289062 106.976562 161.019531 107.429688 159.757812 C 107.878906 158.496094 108.359375 157.25 108.871094 156.011719 C 109.386719 154.777344 109.925781 153.554688 110.5 152.34375 C 111.070312 151.132812 111.671875 149.9375 112.304688 148.757812 C 112.933594 147.578125 113.59375 146.414062 114.28125 145.265625 C 114.972656 144.117188 115.6875 142.984375 116.429688 141.871094 C 117.175781 140.761719 117.945312 139.664062 118.742188 138.589844 C 119.539062 137.515625 120.363281 136.460938 121.210938 135.425781 C 122.0625 134.390625 122.933594 133.378906 123.832031 132.386719 C 124.734375 131.394531 125.65625 130.425781 126.601562 129.480469 C 127.546875 128.53125 128.515625 127.609375 129.507812 126.710938 C 130.5 125.8125 131.515625 124.9375 132.550781 124.089844 C 133.582031 123.238281 134.636719 122.417969 135.714844 121.621094 C 136.789062 120.820312 137.882812 120.050781 138.996094 119.308594 C 140.109375 118.5625 141.238281 117.847656 142.386719 117.160156 C 143.535156 116.472656 144.699219 115.8125 145.878906 115.179688 C 147.058594 114.550781 148.253906 113.949219 149.464844 113.375 C 150.675781 112.804688 151.898438 112.261719 153.136719 111.75 C 154.371094 111.238281 155.621094 110.757812 156.882812 110.304688 C 158.140625 109.855469 159.410156 109.433594 160.691406 109.046875 C 161.972656 108.65625 163.261719 108.300781 164.5625 107.976562 C 165.859375 107.648438 167.164062 107.355469 168.476562 107.09375 C 169.792969 106.835938 171.109375 106.605469 172.433594 106.410156 C 173.757812 106.214844 175.085938 106.050781 176.417969 105.917969 C 177.75 105.785156 179.085938 105.6875 180.421875 105.621094 C 181.757812 105.558594 183.097656 105.523438 184.433594 105.523438 C 185.773438 105.523438 187.109375 105.558594 188.449219 105.621094 C 189.785156 105.6875 191.117188 105.785156 192.449219 105.917969 C 193.78125 106.050781 195.109375 106.214844 196.433594 106.410156 C 197.757812 106.605469 199.078125 106.835938 200.390625 107.09375 C 201.703125 107.355469 203.007812 107.648438 204.308594 107.976562 C 205.605469 108.300781 206.894531 108.65625 208.175781 109.046875 C 209.457031 109.433594 210.726562 109.855469 211.988281 110.304688 C 213.246094 110.757812 214.496094 111.238281 215.734375 111.75 C 216.96875 112.261719 218.191406 112.804688 219.402344 113.375 C 220.613281 113.949219 221.808594 114.550781 222.988281 115.179688 C 224.167969 115.8125 225.332031 116.472656 226.480469 117.160156 C 227.628906 117.847656 228.761719 118.5625 229.871094 119.308594 C 230.984375 120.050781 232.078125 120.820312 233.15625 121.621094 C 234.230469 122.417969 235.285156 123.238281 236.320312 124.089844 C 237.355469 124.9375 238.367188 125.8125 239.359375 126.710938 C 240.351562 127.609375 241.320312 128.53125 242.265625 129.480469 C 243.214844 130.425781 244.136719 131.394531 245.035156 132.386719 C 245.933594 133.378906 246.808594 134.390625 247.65625 135.425781 C 248.507812 136.460938 249.328125 137.515625 250.125 138.589844 C 250.925781 139.664062 251.695312 140.761719 252.4375 141.871094 C 253.183594 142.984375 253.898438 144.117188 254.585938 145.265625 C 255.273438 146.414062 255.933594 147.578125 256.5625 148.757812 C 257.195312 149.9375 257.796875 151.132812 258.371094 152.34375 C 258.941406 153.554688 259.484375 154.777344 259.996094 156.011719 C 260.507812 157.25 260.988281 158.496094 261.441406 159.757812 C 261.890625 161.019531 262.3125 162.289062 262.699219 163.570312 C 263.089844 164.851562 263.445312 166.140625 263.769531 167.4375 C 264.097656 168.738281 264.390625 170.042969 264.648438 171.355469 C 264.910156 172.667969 265.140625 173.988281 265.335938 175.3125 C 265.53125 176.636719 265.695312 177.960938 265.828125 179.296875 C 265.960938 180.628906 266.058594 181.960938 266.125 183.296875 C 266.1875 184.636719 266.222656 185.972656 266.222656 187.3125 Z M 266.222656 187.3125 " fill-opacity="1" fill-rule="nonzero"/><path fill="#e89105" d="M 235.308594 187.3125 C 235.308594 188.976562 235.226562 190.640625 235.0625 192.296875 C 234.898438 193.957031 234.65625 195.601562 234.328125 197.234375 C 234.003906 198.871094 233.601562 200.484375 233.117188 202.078125 C 232.632812 203.671875 232.070312 205.242188 231.433594 206.78125 C 230.796875 208.320312 230.085938 209.824219 229.300781 211.292969 C 228.515625 212.761719 227.660156 214.1875 226.734375 215.574219 C 225.808594 216.960938 224.816406 218.296875 223.757812 219.585938 C 222.703125 220.871094 221.585938 222.105469 220.40625 223.285156 C 219.226562 224.460938 217.996094 225.578125 216.707031 226.636719 C 215.417969 227.695312 214.082031 228.683594 212.699219 229.609375 C 211.3125 230.535156 209.886719 231.390625 208.414062 232.175781 C 206.945312 232.960938 205.441406 233.675781 203.902344 234.3125 C 202.363281 234.949219 200.796875 235.511719 199.203125 235.992188 C 197.605469 236.476562 195.992188 236.882812 194.359375 237.207031 C 192.726562 237.53125 191.078125 237.777344 189.421875 237.9375 C 187.761719 238.101562 186.101562 238.183594 184.433594 238.183594 C 182.769531 238.183594 181.105469 238.101562 179.449219 237.9375 C 177.789062 237.777344 176.144531 237.53125 174.507812 237.207031 C 172.875 236.882812 171.261719 236.476562 169.667969 235.992188 C 168.074219 235.511719 166.503906 234.949219 164.964844 234.3125 C 163.425781 233.675781 161.921875 232.960938 160.453125 232.175781 C 158.984375 231.390625 157.554688 230.535156 156.171875 229.609375 C 154.785156 228.683594 153.449219 227.695312 152.160156 226.636719 C 150.875 225.578125 149.640625 224.460938 148.460938 223.285156 C 147.285156 222.105469 146.167969 220.871094 145.109375 219.585938 C 144.050781 218.296875 143.0625 216.960938 142.136719 215.574219 C 141.210938 214.1875 140.355469 212.761719 139.570312 211.292969 C 138.785156 209.824219 138.070312 208.320312 137.433594 206.78125 C 136.796875 205.242188 136.234375 203.671875 135.753906 202.078125 C 135.269531 200.484375 134.863281 198.871094 134.539062 197.234375 C 134.214844 195.601562 133.96875 193.957031 133.808594 192.296875 C 133.644531 190.640625 133.5625 188.976562 133.5625 187.3125 C 133.5625 185.644531 133.644531 183.984375 133.808594 182.324219 C 133.96875 180.667969 134.214844 179.019531 134.539062 177.386719 C 134.863281 175.753906 135.269531 174.136719 135.753906 172.542969 C 136.234375 170.949219 136.796875 169.382812 137.433594 167.84375 C 138.070312 166.304688 138.785156 164.800781 139.570312 163.332031 C 140.355469 161.859375 141.210938 160.433594 142.136719 159.046875 C 143.0625 157.664062 144.050781 156.328125 145.109375 155.039062 C 146.167969 153.75 147.285156 152.515625 148.460938 151.339844 C 149.640625 150.160156 150.875 149.042969 152.160156 147.988281 C 153.449219 146.929688 154.785156 145.9375 156.171875 145.011719 C 157.554688 144.085938 158.984375 143.230469 160.453125 142.445312 C 161.921875 141.660156 163.425781 140.949219 164.964844 140.3125 C 166.503906 139.671875 168.074219 139.113281 169.667969 138.628906 C 171.261719 138.144531 172.875 137.742188 174.507812 137.417969 C 176.144531 137.089844 177.789062 136.847656 179.449219 136.683594 C 181.105469 136.519531 182.769531 136.4375 184.433594 136.4375 C 186.101562 136.4375 187.761719 136.519531 189.421875 136.683594 C 191.078125 136.847656 192.726562 137.089844 194.359375 137.417969 C 195.992188 137.742188 197.605469 138.144531 199.203125 138.628906 C 200.796875 139.113281 202.363281 139.671875 203.902344 140.3125 C 205.441406 140.949219 206.945312 141.660156 208.414062 142.445312 C 209.886719 143.230469 211.3125 144.085938 212.699219 145.011719 C 214.082031 145.9375 215.417969 146.929688 216.707031 147.988281 C 217.996094 149.042969 219.226562 150.160156 220.40625 151.339844 C 221.585938 152.515625 222.703125 153.75 223.757812 155.039062 C 224.816406 156.328125 225.808594 157.664062 226.734375 159.046875 C 227.660156 160.433594 228.515625 161.859375 229.300781 163.332031 C 230.085938 164.800781 230.796875 166.304688 231.433594 167.84375 C 232.070312 169.382812 232.632812 170.949219 233.117188 172.542969 C 233.601562 174.136719 234.003906 175.753906 234.328125 177.386719 C 234.65625 179.019531 234.898438 180.667969 235.0625 182.324219 C 235.226562 183.984375 235.308594 185.644531 235.308594 187.3125 Z M 235.308594 187.3125 " fill-opacity="1" fill-rule="nonzero"/><path fill="#d84012" d="M 236.21875 145.609375 C 236.871094 145.15625 237.574219 144.839844 238.296875 144.644531 C 241.125 143.890625 244.277344 145.042969 245.871094 147.695312 C 274.042969 193.824219 243.757812 253.828125 189.417969 256.730469 C 186.792969 256.855469 184.152344 256.832031 181.527344 256.664062 C 181.515625 256.664062 181.5 256.660156 181.484375 256.660156 C 181.144531 256.640625 180.808594 256.613281 180.46875 256.585938 C 180.425781 256.582031 180.40625 256.582031 180.40625 256.582031 C 178.589844 262.652344 174.230469 267.375 162.605469 263.367188 C 150.292969 258.84375 144.382812 247.945312 148.035156 242.105469 C 151.699219 236.179688 161.730469 236.253906 171.53125 239.796875 C 178.847656 242.335938 181.296875 245.945312 181.386719 250.421875 C 181.382812 250.429688 181.386719 250.4375 181.386719 250.4375 C 181.386719 250.4375 181.390625 250.4375 181.398438 250.4375 C 183.917969 250.484375 186.441406 250.390625 188.945312 250.136719 C 213.59375 247.964844 235.636719 230.003906 242.4375 206.21875 C 245.855469 194.75 245.738281 182.28125 242.152344 170.914062 C 240.378906 165.257812 237.777344 159.890625 234.457031 155.050781 C 232.945312 152.84375 232.910156 150.066406 234.136719 147.886719 C 234.628906 147.003906 235.328125 146.21875 236.21875 145.609375 Z M 236.21875 145.609375 " fill-opacity="1" fill-rule="nonzero"/><g mask="url(#f4d0afc267)"><g transform="matrix(1, 0, 0, 1, 209, 145)"><g clip-path="url(#d72069cd9b)"><g clip-path="url(#953d946833)"><path fill="#442a00" d="M 30.089844 1.144531 C 31.445312 0.886719 32.890625 1.199219 34.027344 1.996094 C 34.613281 2.40625 35.097656 2.921875 35.46875 3.542969 C 48.605469 25.054688 49.46875 51.140625 37.78125 73.339844 C 32.347656 83.664062 24.433594 92.472656 14.894531 98.808594 C 10.457031 101.757812 5.761719 104.140625 0.835938 105.953125 C 11.382812 101.238281 23.164062 92.761719 33.308594 77.597656 C 50.640625 51.679688 43.035156 20.476562 30.089844 1.144531 Z M 30.089844 1.144531 " fill-opacity="1" fill-rule="nonzero"/></g></g></g></g><g mask="url(#f33df202b2)"><g transform="matrix(1, 0, 0, 1, 150, 247)"><g clip-path="url(#7992c0095d)"><g clip-path="url(#0b19111fe3)"><path fill="#442a00" d="M 27.007812 6.847656 C 27.007812 6.847656 26.074219 15.59375 18.597656 14.566406 C 11.121094 13.535156 2.25 8.410156 0.855469 0.492188 C 0.855469 0.492188 3.84375 7.070312 9.628906 9.8125 C 15.417969 12.550781 22.921875 15.953125 27.007812 6.847656 Z M 27.007812 6.847656 " fill-opacity="1" fill-rule="nonzero"/></g></g></g></g><path fill="#ffffff" d="M 234.90625 148.953125 C 248.691406 168.363281 256.082031 195.574219 237.121094 223.417969 C 228 236.816406 216.441406 243.695312 206.21875 247.171875 C 223.9375 240.09375 238.28125 224.992188 243.5625 206.542969 C 247.023438 194.921875 246.917969 182.140625 243.265625 170.5625 C 241.453125 164.785156 238.816406 159.34375 235.417969 154.386719 C 234.304688 152.765625 234.125 150.726562 234.90625 148.953125 Z M 234.90625 148.953125 " fill-opacity="1" fill-rule="nonzero"/><path fill="#ffffff" d="M 179.585938 249.910156 C 179.585938 249.910156 180.71875 241.292969 162.644531 239.148438 C 171.289062 241.410156 177.046875 243.902344 179.585938 249.910156 Z M 179.585938 249.910156 " fill-opacity="1" fill-rule="nonzero"/><path fill="#d84012" d="M 182.074219 109.746094 C 184.921875 107.417969 189.761719 108.351562 193.082031 108.859375 C 193.753906 108.984375 194.425781 109.113281 195.09375 109.253906 C 196.546875 109.558594 197.976562 109.917969 199.394531 110.308594 C 198.679688 110.34375 197.96875 110.390625 197.261719 110.441406 C 194.800781 110.625 192.355469 110.929688 189.960938 111.445312 C 188.574219 111.773438 187.167969 112.113281 186.046875 112.847656 C 185.632812 113.117188 185.625 113.441406 185.605469 113.9375 C 185.59375 114.488281 185.660156 115.0625 185.773438 115.648438 C 185.933594 116.453125 186.199219 117.269531 186.507812 118.046875 C 192.453125 118.996094 200.773438 122.015625 205.601562 124.472656 C 201.464844 124.496094 191.925781 124.003906 186.898438 124.105469 C 186.882812 124.121094 186.863281 124.148438 186.847656 124.167969 C 186.796875 124.238281 186.640625 124.476562 186.585938 124.554688 C 185.597656 126.210938 184.558594 128.195312 184.664062 130.085938 C 185.390625 131.566406 189.976562 132.855469 191.65625 133.335938 C 193.691406 133.890625 195.777344 134.351562 197.890625 134.714844 C 194.675781 135.171875 191.410156 135.484375 188.132812 135.417969 C 186.011719 135.335938 183.621094 135.183594 181.695312 133.992188 C 178.621094 131.980469 178.339844 127.738281 178.726562 124.53125 C 178.726562 124.519531 178.730469 124.507812 178.730469 124.496094 C 165.5625 125.867188 153.1875 131.707031 143.523438 140.511719 C 135.425781 147.882812 129.234375 157.332031 126.074219 167.972656 C 122.527344 179.464844 122.503906 191.988281 125.96875 203.46875 C 127.679688 209.183594 130.230469 214.625 133.511719 219.550781 C 134.761719 221.429688 134.820312 223.757812 133.871094 225.636719 C 133.414062 226.539062 132.722656 227.335938 131.824219 227.933594 L 131.804688 227.949219 C 128.949219 229.839844 125.054688 228.953125 123.296875 226.015625 C 96.351562 181.421875 124.21875 124.117188 175.3125 118.335938 C 176.5625 118.195312 177.824219 118.082031 179.097656 118.003906 C 179.097656 117.753906 179.105469 117.496094 179.117188 117.242188 C 179.246094 114.390625 180.007812 111.488281 182.074219 109.746094 Z M 182.074219 109.746094 " fill-opacity="1" fill-rule="nonzero"/><g mask="url(#b0479452f2)"><g transform="matrix(1, 0, 0, 1, 114, 121)"><g clip-path="url(#1b7da3e424)"><g clip-path="url(#5e672fa004)"><path fill="#442a00" d="M 28.996094 11.515625 C 35.898438 6.484375 43.515625 2.886719 51.734375 0.761719 C 36.035156 7.222656 19.257812 18.644531 10.09375 38.816406 C -6.964844 76.359375 10.464844 99.269531 16.621094 105.757812 C 15.164062 106.5625 13.324219 106.480469 11.9375 105.507812 C 11.433594 105.15625 11.019531 104.707031 10.703125 104.175781 C 4.285156 93.550781 0.855469 82.023438 0.503906 69.910156 C 0.175781 58.589844 2.667969 47.1875 7.710938 36.933594 C 12.683594 26.832031 20.046875 18.039062 28.996094 11.515625 Z M 28.996094 11.515625 " fill-opacity="1" fill-rule="nonzero"/></g></g></g></g><path fill="#ffffff" d="M 129.046875 157.484375 C 127.371094 160.746094 126.003906 164.148438 124.960938 167.644531 C 121.371094 179.273438 121.332031 192.121094 124.855469 203.808594 C 126.605469 209.648438 129.191406 215.164062 132.546875 220.203125 C 133.390625 221.472656 133.582031 223.054688 133.101562 224.472656 C 127.230469 215.410156 111.582031 186.460938 129.046875 157.484375 Z M 129.046875 157.484375 " fill-opacity="1" fill-rule="nonzero"/><g mask="url(#f3d3896096)"><g transform="matrix(1, 0, 0, 1, 180, 119)"><g clip-path="url(#a8e3b90896)"><g clip-path="url(#b962bbe263)"><path fill="#442a00" d="M 1.28125 1.457031 C 1.28125 1.457031 7.101562 -0.535156 18.417969 3.9375 C 7.472656 1.515625 1.28125 1.457031 1.28125 1.457031 Z M 1.28125 1.457031 " fill-opacity="1" fill-rule="nonzero"/></g></g></g></g><g mask="url(#4eb97965d3)"><g transform="matrix(1, 0, 0, 1, 180, 108)"><g clip-path="url(#8ec1b57954)"><g clip-path="url(#a9bfbe8c57)"><path fill="#442a00" d="M 0.90625 9.167969 C 0.90625 9.167969 -0.550781 1.507812 8.726562 1.242188 C 1.679688 2.789062 0.90625 9.167969 0.90625 9.167969 Z M 0.90625 9.167969 " fill-opacity="1" fill-rule="nonzero"/></g></g></g></g><path fill="#ffffff" d="M 197.785156 158.605469 L 216.308594 128.722656 L 215.199219 125.34375 C 215.199219 125.34375 210.980469 125.421875 208.339844 124.203125 C 205.699219 122.988281 198.121094 113.894531 200.015625 107.335938 C 201.910156 100.777344 216.863281 88.46875 225.960938 98.929688 C 234.015625 88.382812 244.027344 89.082031 249.640625 96.472656 C 256.386719 92.503906 271.339844 86.460938 279.582031 104.699219 C 282.917969 114.304688 278.128906 124.871094 278.128906 124.871094 C 278.128906 124.871094 293.757812 129.152344 288.027344 146.789062 C 283.496094 159.679688 271.421875 160.886719 263.472656 156.316406 C 258.449219 161.277344 259.65625 161.492188 259.65625 161.492188 L 250.949219 183.636719 C 250.949219 183.636719 236.945312 168 228.589844 166.558594 C 220.226562 165.125 197.785156 158.605469 197.785156 158.605469 Z M 197.785156 158.605469 " fill-opacity="1" fill-rule="nonzero"/><path fill="#442a00" d="M 251.046875 187.195312 L 249.460938 185.324219 C 236.152344 169.632812 218.980469 161.257812 198.425781 160.4375 L 195.9375 160.335938 L 215.359375 127.40625 L 217.921875 128.917969 L 201.011719 157.589844 C 210.769531 158.269531 219.835938 160.617188 227.984375 164.59375 C 236.140625 168.570312 243.585938 174.273438 250.128906 181.558594 L 260.890625 155.171875 L 263.648438 156.296875 Z M 251.046875 187.195312 " fill-opacity="1" fill-rule="nonzero"/><path fill="#442a00" d="M 215.511719 125.308594 C 210.46875 126.6875 204.789062 124.324219 201.875 119.96875 C 199.578125 116.65625 198.75 112.445312 199.332031 108.480469 C 200.089844 103.199219 203.265625 98.261719 207.898438 95.574219 C 212.398438 92.859375 218.484375 92.597656 222.851562 95.65625 C 223.90625 96.375 224.824219 97.265625 225.570312 98.257812 C 223.667969 96.753906 221.414062 95.757812 219.046875 95.417969 C 209.699219 94.132812 201.769531 102.816406 202.015625 111.863281 C 202.15625 119.488281 207.796875 125.320312 215.511719 125.308594 Z M 215.511719 125.308594 " fill-opacity="1" fill-rule="nonzero"/><path fill="#442a00" d="M 278.128906 124.871094 C 283.222656 125.527344 287.589844 129.523438 289.335938 134.34375 C 291.207031 139.285156 290.683594 144.976562 288.28125 149.648438 C 284.757812 156.714844 276.621094 161.542969 268.730469 159.527344 C 266.273438 158.886719 263.976562 157.589844 262.269531 155.734375 C 270.773438 161.175781 281.339844 156.890625 285.628906 148.296875 C 290.070312 139.824219 287.4375 128.683594 278.128906 124.871094 Z M 278.128906 124.871094 " fill-opacity="1" fill-rule="nonzero"/><path fill="#442a00" d="M 275.484375 146.667969 C 272.296875 156.808594 259.480469 161.820312 250.863281 154.679688 C 244.625 149.605469 243.757812 139.699219 248.234375 133.382812 C 247.609375 135.414062 247.238281 137.457031 247.191406 139.484375 C 246.945312 146.320312 250.816406 153.226562 257.734375 154.847656 C 264.6875 156.519531 271.644531 152.398438 275.484375 146.667969 Z M 275.484375 146.667969 " fill-opacity="1" fill-rule="nonzero"/><path fill="#442a00" d="M 249.179688 96.800781 C 253.8125 92.398438 260.664062 90.367188 266.914062 91.8125 C 275.621094 93.722656 281.5625 101.433594 282.242188 110.167969 C 282.734375 115.890625 280.953125 121.839844 277.476562 126.1875 C 278.46875 123.921875 279.207031 121.601562 279.636719 119.253906 C 280.921875 112.449219 279.46875 104.929688 274.785156 99.710938 C 267.980469 92.222656 257.675781 92.050781 249.179688 96.800781 Z M 249.179688 96.800781 " fill-opacity="1" fill-rule="nonzero"/><path fill="#442a00" d="M 268.894531 125.007812 C 263.929688 138.230469 249.90625 147.359375 235.730469 144.871094 C 223 142.605469 214.171875 131.625 213.671875 118.867188 C 213.597656 117.167969 213.671875 115.457031 213.898438 113.773438 C 213.960938 114.816406 214.058594 115.878906 214.191406 116.917969 C 214.765625 121.207031 216.097656 125.417969 218.277344 129.148438 C 222.054688 135.777344 228.722656 140.644531 236.25 141.941406 C 249.601562 144.238281 262.175781 136.230469 268.894531 125.007812 Z M 268.894531 125.007812 " fill-opacity="1" fill-rule="nonzero"/><path fill="#442a00" d="M 231.671875 116.148438 C 226.988281 114.660156 223.941406 109.707031 223.734375 104.851562 C 223.203125 97.28125 228.867188 89.53125 236.535156 88.347656 C 244.53125 86.96875 251.539062 93.453125 250.839844 101.472656 C 250.617188 100.324219 250.28125 99.222656 249.839844 98.183594 C 249.394531 97.148438 248.835938 96.179688 248.171875 95.3125 C 243.59375 89.316406 235.378906 89.679688 230.355469 94.859375 C 224.492188 100.792969 224.382812 111.292969 231.671875 116.148438 Z M 231.671875 116.148438 " fill-opacity="1" fill-rule="nonzero"/><g mask="url(#5bcfd7b941)"><g transform="matrix(1, 0, 0, 1, 196, 127)"><g clip-path="url(#8cc2e815aa)"><g clip-path="url(#96af274a44)"><path fill="#442a00" d="M 46.496094 23.382812 C 54.828125 36.648438 66.574219 30.480469 66.574219 30.480469 C 66.574219 30.480469 62.742188 29.726562 56.5625 25.597656 C 50.382812 21.472656 50.316406 16.671875 50.316406 16.671875 C 50.316406 16.671875 50.035156 18.378906 38.558594 16.085938 C 18.199219 8.847656 20.496094 0.746094 20.496094 0.746094 L 1.03125 31.910156 C 1.03125 31.910156 26.839844 34.042969 53.21875 54.050781 C 44.710938 33.46875 15.941406 27.734375 13.589844 27.296875 C 17.8125 26.984375 29.230469 26.628906 39.929688 30.546875 C 34.976562 25.691406 25.316406 21.296875 19 18.761719 L 20.898438 15.875 C 20.902344 15.875 32.390625 27.1875 46.496094 23.382812 Z M 46.496094 23.382812 " fill-opacity="1" fill-rule="nonzero"/></g></g></g></g><g mask="url(#13f2e2f5d5)"><g transform="matrix(1, 0, 0, 1, 201, 94)"><g clip-path="url(#7fac4445ec)"><g clip-path="url(#e05d77be61)"><path fill="#442a00" d="M 18.539062 1.480469 C 18.539062 1.480469 0.757812 8.023438 7.960938 25.296875 C 7.960938 25.296875 8.355469 19.261719 13.644531 13.078125 C 13.644531 13.078125 13.972656 30.804688 31.941406 41.335938 C 24.285156 33.011719 23.035156 25.917969 23.035156 25.917969 C 23.035156 25.917969 27.226562 34.992188 41.046875 39.097656 C 47.757812 25.46875 53.796875 23.011719 53.796875 23.011719 C 53.796875 23.011719 47.878906 32.347656 53.128906 39.394531 C 62.152344 38.445312 66.101562 34.414062 66.101562 34.414062 C 66.101562 34.414062 55.878906 54.363281 33.078125 47.679688 C 18.171875 42.625 14.195312 31.339844 14.195312 31.339844 C 14.195312 31.339844 5.707031 32.550781 2.050781 24.664062 C -1.609375 16.777344 2.808594 -2.078125 18.539062 1.480469 Z M 18.539062 1.480469 " fill-opacity="1" fill-rule="nonzero"/></g></g></g></g><g mask="url(#bc0eb4cc80)"><g transform="matrix(1, 0, 0, 1, 234, 89)"><g clip-path="url(#ce3280df05)"><g clip-path="url(#d059b022a0)"><path fill="#442a00" d="M 0.132812 1.933594 C 0.132812 1.933594 13.800781 -0.128906 16.644531 21.648438 C 21.675781 14.320312 22.027344 9.214844 22.027344 9.214844 C 22.027344 9.214844 50.046875 10.179688 38.105469 40.4375 C 45.394531 39.339844 54.929688 50.273438 42.984375 63.683594 C 46.890625 57.289062 45.640625 49.136719 45.640625 49.136719 C 45.640625 49.136719 29.050781 72.101562 13.394531 55.289062 C 14.664062 64.960938 28.070312 67.628906 30.375 67.105469 C 33.066406 70.164062 43.90625 71.050781 50.574219 64.871094 C 57.242188 58.695312 59.300781 44.183594 44.128906 35.871094 C 49.25 27.515625 50.148438 12.742188 35.683594 5.691406 C 27.515625 2.585938 19.277344 4.332031 15.636719 7.472656 C 12.550781 2.332031 4.480469 -0.976562 0.132812 1.933594 Z M 0.132812 1.933594 " fill-opacity="1" fill-rule="nonzero"/></g></g></g></g><g mask="url(#79bbc711d2)"><g transform="matrix(1, 0, 0, 1, 234, 96)"><g clip-path="url(#d24ebc4815)"><g clip-path="url(#a8f960c364)"><path fill="#442a00" d="M 5.984375 0.953125 C 5.984375 0.953125 -6.160156 11.878906 4.648438 21.558594 C 0.40625 11.554688 5.984375 0.953125 5.984375 0.953125 Z M 5.984375 0.953125 " fill-opacity="1" fill-rule="nonzero"/></g></g></g></g><path fill="#442a00" d="M 205.363281 145.816406 C 216.6875 147.359375 227.390625 151.8125 236.84375 157.992188 C 226.890625 153.292969 215.992188 150.390625 205.035156 150.417969 C 205.039062 150.421875 205.363281 145.816406 205.363281 145.816406 Z M 205.363281 145.816406 " fill-opacity="1" fill-rule="nonzero"/><path fill="#e89105" d="M 298.289062 166.113281 C 308.996094 159.152344 313.636719 147.300781 308.65625 139.640625 C 303.675781 131.976562 290.957031 131.410156 280.25 138.371094 C 270.5625 144.671875 268.800781 153.054688 272.25 160.269531 C 267.734375 164.628906 258.882812 171.230469 242.71875 177.261719 C 215.546875 187.402344 211.167969 194.351562 215.132812 200.449219 C 219.09375 206.539062 227.226562 205.363281 247.515625 184.640625 C 259.585938 172.316406 269.210938 166.90625 275.03125 164.546875 C 280.226562 170.621094 288.601562 172.414062 298.289062 166.113281 Z M 298.289062 166.113281 " fill-opacity="1" fill-rule="nonzero"/><g mask="url(#4c6a667ed8)"><g transform="matrix(1, 0, 0, 1, 214, 138)"><g clip-path="url(#60d4a5e85f)"><g clip-path="url(#7ac6b2284e)"><path fill="#442a00" d="M 84.289062 28.113281 C 94.996094 21.152344 99.636719 9.300781 94.65625 1.640625 C 94.414062 1.269531 94.15625 0.914062 93.875 0.578125 C 97.738281 8.234375 93.042969 19.285156 82.855469 25.910156 C 73.167969 32.210938 66.226562 32.621094 61.027344 26.546875 C 55.210938 28.90625 44.152344 32.105469 32.082031 44.433594 C 13.058594 63.859375 4.722656 66.113281 0.492188 61.292969 C 0.667969 61.679688 0.882812 62.066406 1.132812 62.445312 C 5.09375 68.535156 13.226562 67.359375 33.515625 46.636719 C 45.585938 34.3125 55.210938 28.902344 61.03125 26.542969 C 66.226562 32.621094 74.601562 34.414062 84.289062 28.113281 Z M 84.289062 28.113281 " fill-opacity="1" fill-rule="nonzero"/></g></g></g></g><path fill="#f6f6f6" d="M 281.03125 142.558594 C 291.734375 135.597656 304.453125 136.167969 309.433594 143.828125 C 309.9375 144.601562 310.339844 145.417969 310.652344 146.269531 C 310.589844 143.882812 309.945312 141.625 308.65625 139.640625 C 303.675781 131.976562 290.957031 131.410156 280.25 138.371094 C 271.472656 144.082031 269.203125 151.496094 271.417969 158.207031 C 271.1875 152.722656 274.046875 147.101562 281.03125 142.558594 Z M 281.03125 142.558594 " fill-opacity="1" fill-rule="nonzero"/><path fill="#f6f6f6" d="M 214.742188 199.792969 C 215.640625 194.808594 229.511719 183.011719 249.789062 175.445312 C 251.917969 174.648438 253.542969 173.375 254.941406 171.972656 C 251.425781 173.738281 247.378906 175.527344 242.71875 177.261719 C 216.519531 187.042969 211.511719 193.855469 214.742188 199.792969 Z M 214.742188 199.792969 " fill-opacity="1" fill-rule="nonzero"/><path fill="#442a00" d="M 304.289062 142.476562 C 306.992188 145.40625 306.367188 149.996094 304.878906 153.375 C 302.074219 159.839844 294.101562 166.265625 286.828125 166.085938 C 282.808594 166.042969 279.265625 163.261719 277.871094 159.65625 C 280.171875 162.164062 283.316406 164.042969 286.773438 163.628906 C 294.804688 162.847656 307.71875 151.1875 304.289062 142.476562 Z M 304.289062 142.476562 " fill-opacity="1" fill-rule="nonzero"/><path fill="#442a00" d="M 212.957031 194.761719 C 212.992188 194.632812 213.03125 194.507812 213.070312 194.382812 C 214.945312 188.699219 224.234375 182.910156 242.3125 176.167969 C 257.515625 170.492188 266.164062 164.339844 270.839844 159.992188 C 267.300781 151.691406 270.539062 143.292969 279.617188 137.390625 C 290.84375 130.089844 304.316406 130.8125 309.640625 139.003906 C 312.261719 143.035156 312.546875 148.207031 310.449219 153.570312 C 308.402344 158.796875 304.3125 163.601562 298.933594 167.101562 C 289.855469 173.003906 280.871094 172.550781 274.710938 165.949219 C 268.84375 168.464844 259.707031 173.867188 248.355469 185.464844 C 234.855469 199.246094 225.796875 205.390625 219.84375 204.800781 C 217.515625 204.570312 215.601562 203.320312 214.152344 201.09375 C 212.785156 198.984375 212.382812 196.855469 212.957031 194.761719 Z M 273.671875 160.527344 L 273.066406 161.113281 C 268.382812 165.632812 259.386719 172.292969 243.132812 178.359375 C 226.011719 184.75 216.910156 190.230469 215.296875 195.113281 C 214.785156 196.667969 215.042969 198.160156 216.117188 199.808594 C 217.1875 201.457031 218.445312 202.300781 220.074219 202.460938 C 225.191406 202.972656 233.898438 196.875 246.679688 183.820312 C 258.816406 171.425781 268.554688 165.90625 274.589844 163.457031 L 275.371094 163.140625 L 275.917969 163.785156 C 281.324219 170.105469 289.246094 170.597656 297.652344 165.132812 C 302.625 161.898438 306.394531 157.488281 308.261719 152.714844 C 310.078125 148.074219 309.867188 143.660156 307.671875 140.28125 C 303.050781 133.171875 291.035156 132.761719 280.890625 139.355469 C 272.484375 144.820312 269.722656 152.261719 273.308594 159.765625 Z M 273.671875 160.527344 " fill-opacity="1" fill-rule="nonzero"/><g mask="url(#ecc3f633fa)"><g transform="matrix(1, 0, 0, 1, 278, 143)"><g clip-path="url(#0576a31f61)"><g clip-path="url(#9e67096611)"><path fill="#442a00" d="M 26.871094 0.589844 C 26.871094 0.589844 27.371094 6.417969 17.9375 13.503906 C 8.5 20.585938 1.015625 18.195312 1.015625 18.195312 C 1.015625 18.195312 6.933594 23.738281 13.324219 20.902344 C 19.710938 18.0625 29.15625 7.824219 26.871094 0.589844 Z M 26.871094 0.589844 " fill-opacity="1" fill-rule="nonzero"/></g></g></g></g><path fill="#442a00" d="M 203.453125 177.667969 C 203.777344 176.863281 204.285156 176.136719 204.960938 175.546875 C 206.109375 174.53125 207.585938 174.042969 209.113281 174.167969 L 272.628906 179.285156 C 272.835938 179.304688 273.03125 179.214844 273.15625 179.046875 L 277.71875 172.855469 C 279.007812 171.113281 281.066406 170.042969 283.234375 169.996094 L 306.5625 169.496094 C 308.503906 169.453125 310.394531 170.226562 311.75 171.617188 C 313.109375 173.007812 313.832031 174.917969 313.742188 176.859375 L 312.996094 192.570312 C 312.90625 194.511719 312.003906 196.34375 310.523438 197.601562 C 309.039062 198.855469 307.085938 199.449219 305.15625 199.222656 L 281.980469 196.519531 C 279.828125 196.269531 277.878906 195.011719 276.761719 193.15625 L 272.804688 186.558594 C 272.699219 186.378906 272.507812 186.273438 272.300781 186.269531 L 208.585938 185.359375 C 207.054688 185.335938 205.632812 184.707031 204.582031 183.589844 C 203.535156 182.476562 202.996094 181.015625 203.066406 179.488281 C 203.089844 178.851562 203.226562 178.242188 203.453125 177.667969 Z M 209.519531 179.074219 C 209.398438 179.238281 209.285156 179.484375 209.273438 179.78125 L 209.699219 179.800781 C 209.714844 179.503906 209.625 179.25 209.519531 179.074219 Z M 209.609375 180.226562 C 209.660156 180.101562 209.695312 179.960938 209.699219 179.804688 L 209.273438 179.785156 C 209.257812 180.082031 209.34375 180.335938 209.449219 180.511719 C 209.511719 180.429688 209.566406 180.335938 209.609375 180.226562 Z M 258.796875 182.128906 L 212.808594 178.421875 C 213.09375 178.878906 213.242188 179.40625 213.214844 179.96875 C 213.1875 180.523438 212.996094 181.035156 212.660156 181.472656 Z M 282.050781 174.238281 C 281.59375 174.457031 281.199219 174.78125 280.894531 175.191406 L 276.328125 181.386719 C 275.835938 182.054688 275.191406 182.558594 274.460938 182.871094 C 275.15625 183.253906 275.753906 183.8125 276.179688 184.527344 L 280.140625 191.121094 C 280.402344 191.558594 280.769531 191.921875 281.199219 192.179688 C 281.074219 191.863281 281.011719 191.515625 281.03125 191.152344 C 281.09375 189.820312 282.183594 188.800781 283.515625 188.820312 L 288.996094 188.871094 L 283.519531 188.402344 C 282.199219 188.292969 281.21875 187.175781 281.277344 185.851562 C 281.34375 184.523438 282.433594 183.5 283.761719 183.519531 L 289.242188 183.570312 L 283.769531 183.101562 C 282.449219 182.992188 281.464844 181.871094 281.527344 180.546875 C 281.59375 179.222656 282.683594 178.195312 284.007812 178.21875 L 289.492188 178.269531 L 284.023438 177.800781 C 282.703125 177.691406 281.714844 176.570312 281.78125 175.246094 C 281.800781 174.882812 281.894531 174.542969 282.050781 174.238281 Z M 284.238281 176.859375 L 284.21875 176.859375 C 284.226562 176.859375 284.230469 176.859375 284.238281 176.859375 Z M 283.984375 182.164062 L 283.964844 182.164062 C 283.972656 182.164062 283.976562 182.164062 283.984375 182.164062 Z M 283.730469 187.464844 L 283.714844 187.464844 C 283.722656 187.464844 283.726562 187.464844 283.730469 187.464844 Z M 283.597656 189.773438 C 283.597656 189.773438 283.597656 189.773438 283.59375 189.773438 Z M 283.597656 189.773438 " fill-opacity="1" fill-rule="nonzero"/><path fill="#e89105" d="M 311.023438 192.476562 L 311.765625 176.765625 C 311.902344 173.835938 309.535156 171.402344 306.601562 171.464844 L 283.273438 171.96875 C 281.703125 172 280.238281 172.761719 279.308594 174.023438 L 274.742188 180.214844 C 274.214844 180.929688 273.355469 181.320312 272.46875 181.25 L 208.957031 176.132812 C 206.90625 175.96875 205.132812 177.527344 205.035156 179.578125 C 204.941406 181.628906 206.558594 183.355469 208.613281 183.382812 L 272.324219 184.292969 C 273.214844 184.304688 274.03125 184.777344 274.488281 185.542969 L 278.449219 192.136719 C 279.257812 193.484375 280.644531 194.378906 282.203125 194.5625 L 305.378906 197.265625 C 308.292969 197.605469 310.882812 195.402344 311.023438 192.476562 Z M 284.191406 175.835938 C 283.9375 175.816406 283.742188 175.597656 283.753906 175.339844 C 283.765625 175.085938 283.980469 174.882812 284.234375 174.890625 L 307.796875 175.113281 C 308.570312 175.125 309.179688 175.773438 309.140625 176.542969 C 309.105469 177.316406 308.4375 177.902344 307.667969 177.84375 Z M 283.941406 181.136719 C 283.6875 181.117188 283.492188 180.898438 283.503906 180.640625 C 283.515625 180.386719 283.730469 180.183594 283.984375 180.191406 L 307.550781 180.414062 C 308.320312 180.425781 308.929688 181.074219 308.894531 181.847656 C 308.859375 182.617188 308.191406 183.207031 307.421875 183.144531 Z M 207.730469 179.707031 C 207.757812 179.128906 208.566406 178.699219 209.539062 178.742188 C 210.507812 178.789062 211.273438 179.296875 211.246094 179.871094 C 211.21875 180.449219 210.410156 180.882812 209.4375 180.839844 C 208.464844 180.792969 207.703125 180.289062 207.730469 179.707031 Z M 283.691406 186.4375 C 283.433594 186.417969 283.242188 186.199219 283.253906 185.945312 C 283.265625 185.6875 283.480469 185.488281 283.734375 185.492188 L 307.296875 185.714844 C 308.070312 185.726562 308.679688 186.378906 308.640625 187.148438 C 308.605469 187.917969 307.9375 188.507812 307.167969 188.445312 Z M 283.4375 191.742188 C 283.183594 191.722656 282.988281 191.503906 283 191.246094 C 283.011719 190.992188 283.226562 190.792969 283.480469 190.796875 L 307.046875 191.019531 C 307.816406 191.03125 308.425781 191.679688 308.390625 192.453125 C 308.355469 193.222656 307.6875 193.8125 306.917969 193.75 Z M 283.4375 191.742188 " fill-opacity="1" fill-rule="nonzero"/><g mask="url(#9ffe00e66e)"><g transform="matrix(1, 0, 0, 1, 204, 174)"><g clip-path="url(#5f8bdb0159)"><path fill="#442a00" d="M 104.953125 2.0625 C 105.011719 1.914062 105.046875 1.75 105.046875 1.578125 C 105.058594 0.804688 104.429688 0.179688 103.65625 0.191406 L 80.101562 0.71875 C 79.84375 0.722656 79.636719 0.929688 79.632812 1.1875 C 79.632812 1.445312 79.832031 1.65625 80.085938 1.667969 L 80.328125 1.679688 L 103.640625 1.15625 C 104.246094 1.148438 104.757812 1.527344 104.953125 2.0625 Z M 104.953125 2.0625 " fill-opacity="1" fill-rule="nonzero"/><path fill="#442a00" d="M 104.847656 7.457031 C 104.90625 7.308594 104.941406 7.144531 104.941406 6.972656 C 104.949219 6.199219 104.316406 5.578125 103.542969 5.589844 L 79.988281 6.238281 C 79.730469 6.242188 79.527344 6.453125 79.523438 6.707031 C 79.519531 6.964844 79.722656 7.175781 79.976562 7.1875 L 80.21875 7.199219 L 103.53125 6.558594 C 104.136719 6.546875 104.648438 6.921875 104.847656 7.457031 Z M 104.847656 7.457031 " fill-opacity="1" fill-rule="nonzero"/><path fill="#442a00" d="M 104.34375 17.96875 C 104.402344 17.820312 104.441406 17.65625 104.445312 17.484375 C 104.460938 16.710938 103.828125 16.082031 103.058594 16.09375 L 79.5 16.5625 C 79.242188 16.566406 79.035156 16.773438 79.03125 17.027344 C 79.023438 17.285156 79.226562 17.496094 79.480469 17.511719 L 79.726562 17.527344 L 103.039062 17.0625 C 103.640625 17.054688 104.152344 17.433594 104.34375 17.96875 Z M 104.34375 17.96875 " fill-opacity="1" fill-rule="nonzero"/><g clip-path="url(#02b0932e11)"><path fill="#442a00" d="M 107.023438 18.476562 L 107.070312 17.507812 C 106.933594 20.4375 104.339844 22.636719 101.429688 22.296875 L 78.25 19.59375 C 76.695312 19.414062 75.304688 18.515625 74.5 17.171875 L 70.539062 10.574219 C 70.082031 9.8125 69.261719 9.34375 68.375 9.328125 L 4.664062 8.417969 C 2.773438 8.390625 1.257812 6.929688 1.097656 5.097656 C 1.070312 5.257812 1.046875 5.414062 1.039062 5.578125 C 0.941406 7.628906 2.5625 9.355469 4.617188 9.382812 L 68.328125 10.292969 C 69.21875 10.304688 70.035156 10.777344 70.492188 11.542969 L 74.453125 18.136719 C 75.261719 19.484375 76.648438 20.378906 78.203125 20.5625 L 101.382812 23.265625 C 104.292969 23.605469 106.882812 21.402344 107.023438 18.476562 Z M 107.023438 18.476562 " fill-opacity="1" fill-rule="nonzero"/></g><path fill="#442a00" d="M 5.539062 4.746094 C 6.214844 4.777344 6.792969 5.035156 7.070312 5.382812 C 7.203125 5.246094 7.285156 5.085938 7.292969 4.910156 C 7.320312 4.328125 6.554688 3.820312 5.585938 3.777344 C 4.617188 3.730469 3.808594 4.164062 3.777344 4.746094 C 3.769531 4.921875 3.832031 5.085938 3.953125 5.238281 C 4.261719 4.910156 4.859375 4.710938 5.539062 4.746094 Z M 5.539062 4.746094 " fill-opacity="1" fill-rule="nonzero"/><path fill="#442a00" d="M 79.28125 11.71875 C 79.273438 11.976562 79.472656 12.191406 79.730469 12.203125 L 79.972656 12.214844 L 103.289062 11.769531 C 103.886719 11.761719 104.402344 12.144531 104.589844 12.679688 C 104.648438 12.53125 104.6875 12.367188 104.691406 12.195312 C 104.707031 11.421875 104.078125 10.792969 103.304688 10.800781 L 79.746094 11.253906 C 79.492188 11.253906 79.285156 11.460938 79.28125 11.71875 Z M 79.28125 11.71875 " fill-opacity="1" fill-rule="nonzero"/></g></g></g><path fill="#f6f6f6" d="M 210.472656 180.6875 C 210.175781 180.800781 209.820312 180.855469 209.4375 180.839844 C 208.476562 180.792969 207.714844 180.292969 207.730469 179.71875 C 207.28125 179.890625 206.976562 180.183594 206.960938 180.535156 C 206.933594 181.113281 207.699219 181.621094 208.667969 181.664062 C 209.636719 181.710938 210.445312 181.277344 210.476562 180.699219 C 210.472656 180.699219 210.472656 180.695312 210.472656 180.6875 Z M 210.472656 180.6875 " fill-opacity="1" fill-rule="nonzero"/><path fill="#f6f6f6" d="M 208.183594 176.960938 L 271.695312 182.082031 C 272.582031 182.152344 273.441406 181.761719 273.96875 181.042969 L 274.160156 180.785156 C 273.671875 181.132812 273.074219 181.300781 272.464844 181.25 L 208.953125 176.132812 C 207.59375 176.023438 206.355469 176.675781 205.652344 177.726562 C 206.34375 177.183594 207.234375 176.882812 208.183594 176.960938 Z M 208.183594 176.960938 " fill-opacity="1" fill-rule="nonzero"/><path fill="#f6f6f6" d="M 282.5 172.792969 L 305.828125 172.292969 C 308.761719 172.230469 311.132812 174.660156 310.992188 177.589844 L 310.25 193.300781 C 310.199219 194.347656 309.835938 195.296875 309.257812 196.074219 C 310.277344 195.203125 310.953125 193.929688 311.019531 192.472656 L 311.761719 176.761719 C 311.902344 173.832031 309.53125 171.398438 306.601562 171.464844 L 283.269531 171.964844 C 281.703125 171.996094 280.242188 172.753906 279.3125 174.011719 C 280.195312 173.257812 281.316406 172.820312 282.5 172.792969 Z M 282.5 172.792969 " fill-opacity="1" fill-rule="nonzero"/><path fill="#ffffff" d="M 251.785156 209.070312 C 251.785156 209.796875 251.675781 210.523438 251.460938 211.246094 C 251.246094 211.96875 250.921875 212.6875 250.492188 213.402344 C 250.0625 214.113281 249.523438 214.820312 248.886719 215.515625 C 248.246094 216.210938 247.503906 216.894531 246.660156 217.566406 C 245.8125 218.238281 244.871094 218.894531 243.832031 219.535156 C 242.792969 220.175781 241.660156 220.800781 240.433594 221.40625 C 239.207031 222.007812 237.894531 222.59375 236.496094 223.15625 C 235.097656 223.71875 233.617188 224.253906 232.058594 224.769531 C 230.5 225.285156 228.867188 225.769531 227.160156 226.230469 C 225.457031 226.695312 223.6875 227.125 221.851562 227.53125 C 220.019531 227.933594 218.128906 228.308594 216.183594 228.648438 C 214.238281 228.992188 212.246094 229.304688 210.207031 229.582031 C 208.171875 229.859375 206.097656 230.105469 203.984375 230.316406 C 201.875 230.527344 199.738281 230.703125 197.574219 230.84375 C 195.410156 230.988281 193.230469 231.09375 191.035156 231.164062 C 188.839844 231.234375 186.640625 231.273438 184.433594 231.273438 C 182.226562 231.273438 180.027344 231.234375 177.832031 231.164062 C 175.636719 231.09375 173.457031 230.988281 171.292969 230.84375 C 169.132812 230.703125 166.996094 230.527344 164.882812 230.316406 C 162.773438 230.105469 160.699219 229.859375 158.660156 229.582031 C 156.621094 229.304688 154.628906 228.992188 152.683594 228.648438 C 150.738281 228.308594 148.851562 227.933594 147.015625 227.53125 C 145.183594 227.125 143.414062 226.695312 141.707031 226.230469 C 140.003906 225.769531 138.371094 225.285156 136.808594 224.769531 C 135.25 224.253906 133.769531 223.71875 132.371094 223.15625 C 130.972656 222.59375 129.660156 222.007812 128.433594 221.40625 C 127.207031 220.800781 126.074219 220.175781 125.035156 219.535156 C 123.996094 218.894531 123.054688 218.238281 122.210938 217.566406 C 121.367188 216.894531 120.625 216.210938 119.984375 215.515625 C 119.34375 214.820312 118.808594 214.113281 118.378906 213.402344 C 117.949219 212.6875 117.625 211.96875 117.40625 211.246094 C 117.191406 210.523438 117.082031 209.796875 117.082031 209.070312 C 117.082031 208.34375 117.191406 207.617188 117.40625 206.894531 C 117.625 206.171875 117.949219 205.453125 118.378906 204.738281 C 118.808594 204.027344 119.34375 203.320312 119.984375 202.625 C 120.625 201.929688 121.367188 201.246094 122.210938 200.574219 C 123.054688 199.902344 123.996094 199.246094 125.035156 198.605469 C 126.074219 197.964844 127.207031 197.339844 128.433594 196.734375 C 129.660156 196.132812 130.972656 195.546875 132.371094 194.984375 C 133.769531 194.425781 135.25 193.886719 136.808594 193.371094 C 138.371094 192.859375 140.003906 192.371094 141.707031 191.910156 C 143.414062 191.449219 145.183594 191.015625 147.015625 190.609375 C 148.851562 190.207031 150.738281 189.832031 152.683594 189.492188 C 154.628906 189.148438 156.621094 188.835938 158.660156 188.558594 C 160.699219 188.28125 162.773438 188.035156 164.882812 187.824219 C 166.996094 187.613281 169.132812 187.4375 171.292969 187.296875 C 173.457031 187.152344 175.636719 187.046875 177.832031 186.976562 C 180.027344 186.90625 182.226562 186.871094 184.433594 186.871094 C 186.640625 186.871094 188.839844 186.90625 191.035156 186.976562 C 193.230469 187.046875 195.410156 187.152344 197.574219 187.296875 C 199.738281 187.4375 201.875 187.613281 203.984375 187.824219 C 206.097656 188.035156 208.171875 188.28125 210.207031 188.558594 C 212.246094 188.835938 214.238281 189.148438 216.183594 189.492188 C 218.128906 189.832031 220.019531 190.207031 221.851562 190.609375 C 223.6875 191.015625 225.457031 191.449219 227.160156 191.910156 C 228.867188 192.371094 230.5 192.859375 232.058594 193.371094 C 233.617188 193.886719 235.097656 194.425781 236.496094 194.984375 C 237.894531 195.546875 239.207031 196.132812 240.433594 196.734375 C 241.660156 197.339844 242.792969 197.964844 243.832031 198.605469 C 244.871094 199.246094 245.8125 199.902344 246.660156 200.574219 C 247.503906 201.246094 248.246094 201.929688 248.886719 202.625 C 249.523438 203.320312 250.058594 204.027344 250.492188 204.738281 C 250.921875 205.453125 251.246094 206.171875 251.460938 206.894531 C 251.675781 207.617188 251.785156 208.34375 251.785156 209.070312 Z M 251.785156 209.070312 " fill-opacity="1" fill-rule="nonzero"/><g mask="url(#3ad510a35d)"><g transform="matrix(1, 0, 0, 1, 116, 186)"><g clip-path="url(#70a373c299)"><g clip-path="url(#fbbeb6d509)"><path fill="#442a00" d="M 135.785156 23.070312 C 135.785156 23.796875 135.675781 24.523438 135.460938 25.246094 C 135.246094 25.96875 134.921875 26.6875 134.492188 27.402344 C 134.0625 28.113281 133.523438 28.820312 132.886719 29.515625 C 132.246094 30.210938 131.503906 30.894531 130.660156 31.566406 C 129.8125 32.238281 128.871094 32.894531 127.832031 33.535156 C 126.792969 34.175781 125.660156 34.800781 124.433594 35.40625 C 123.207031 36.007812 121.894531 36.59375 120.496094 37.15625 C 119.097656 37.71875 117.617188 38.253906 116.058594 38.769531 C 114.5 39.285156 112.867188 39.769531 111.160156 40.230469 C 109.457031 40.695312 107.6875 41.125 105.851562 41.53125 C 104.019531 41.933594 102.128906 42.308594 100.183594 42.648438 C 98.238281 42.992188 96.246094 43.304688 94.207031 43.582031 C 92.171875 43.859375 90.097656 44.105469 87.984375 44.316406 C 85.875 44.527344 83.738281 44.703125 81.574219 44.84375 C 79.410156 44.988281 77.230469 45.09375 75.035156 45.164062 C 72.839844 45.234375 70.640625 45.273438 68.433594 45.273438 C 66.226562 45.273438 64.027344 45.234375 61.832031 45.164062 C 59.636719 45.09375 57.457031 44.988281 55.292969 44.84375 C 53.132812 44.703125 50.996094 44.527344 48.882812 44.316406 C 46.773438 44.105469 44.699219 43.859375 42.660156 43.582031 C 40.621094 43.304688 38.628906 42.992188 36.683594 42.648438 C 34.738281 42.308594 32.851562 41.933594 31.015625 41.53125 C 29.183594 41.125 27.414062 40.695312 25.707031 40.230469 C 24.003906 39.769531 22.371094 39.285156 20.808594 38.769531 C 19.25 38.253906 17.769531 37.71875 16.371094 37.15625 C 14.972656 36.59375 13.660156 36.007812 12.433594 35.40625 C 11.207031 34.800781 10.074219 34.175781 9.035156 33.535156 C 7.996094 32.894531 7.054688 32.238281 6.210938 31.566406 C 5.367188 30.894531 4.625 30.210938 3.984375 29.515625 C 3.34375 28.820312 2.808594 28.113281 2.378906 27.402344 C 1.949219 26.6875 1.625 25.96875 1.40625 25.246094 C 1.191406 24.523438 1.082031 23.796875 1.082031 23.070312 C 1.082031 22.34375 1.191406 21.617188 1.40625 20.894531 C 1.625 20.171875 1.949219 19.453125 2.378906 18.738281 C 2.808594 18.027344 3.34375 17.320312 3.984375 16.625 C 4.625 15.929688 5.367188 15.246094 6.210938 14.574219 C 7.054688 13.902344 7.996094 13.246094 9.035156 12.605469 C 10.074219 11.964844 11.207031 11.339844 12.433594 10.734375 C 13.660156 10.132812 14.972656 9.546875 16.371094 8.984375 C 17.769531 8.425781 19.25 7.886719 20.808594 7.371094 C 22.371094 6.859375 24.003906 6.371094 25.707031 5.910156 C 27.414062 5.449219 29.183594 5.015625 31.015625 4.609375 C 32.851562 4.207031 34.738281 3.832031 36.683594 3.492188 C 38.628906 3.148438 40.621094 2.835938 42.660156 2.558594 C 44.699219 2.28125 46.773438 2.035156 48.882812 1.824219 C 50.996094 1.613281 53.132812 1.4375 55.292969 1.296875 C 57.457031 1.152344 59.636719 1.046875 61.832031 0.976562 C 64.027344 0.90625 66.226562 0.871094 68.433594 0.871094 C 70.640625 0.871094 72.839844 0.90625 75.035156 0.976562 C 77.230469 1.046875 79.410156 1.152344 81.574219 1.296875 C 83.738281 1.4375 85.875 1.613281 87.984375 1.824219 C 90.097656 2.035156 92.171875 2.28125 94.207031 2.558594 C 96.246094 2.835938 98.238281 3.148438 100.183594 3.492188 C 102.128906 3.832031 104.019531 4.207031 105.851562 4.609375 C 107.6875 5.015625 109.457031 5.449219 111.160156 5.910156 C 112.867188 6.371094 114.5 6.859375 116.058594 7.371094 C 117.617188 7.886719 119.097656 8.425781 120.496094 8.984375 C 121.894531 9.546875 123.207031 10.132812 124.433594 10.734375 C 125.660156 11.339844 126.792969 11.964844 127.832031 12.605469 C 128.871094 13.246094 129.8125 13.902344 130.660156 14.574219 C 131.503906 15.246094 132.246094 15.929688 132.886719 16.625 C 133.523438 17.320312 134.058594 18.027344 134.492188 18.738281 C 134.921875 19.453125 135.246094 20.171875 135.460938 20.894531 C 135.675781 21.617188 135.785156 22.34375 135.785156 23.070312 Z M 135.785156 23.070312 " fill-opacity="1" fill-rule="nonzero"/></g></g></g></g><g mask="url(#d67a962378)"><g transform="matrix(1, 0, 0, 1, 116, 206)"><g clip-path="url(#40022daaf2)"><g clip-path="url(#42776c7cc1)"><path fill="#442a00" d="M 68.433594 21.386719 C 33.222656 21.386719 4.324219 12.480469 1.339844 1.128906 C 1.175781 1.765625 1.082031 2.414062 1.082031 3.070312 C 1.082031 15.332031 31.238281 25.273438 68.433594 25.273438 C 105.632812 25.273438 135.785156 15.332031 135.785156 3.070312 C 135.785156 2.417969 135.695312 1.769531 135.527344 1.128906 C 132.542969 12.480469 103.644531 21.386719 68.433594 21.386719 Z M 68.433594 21.386719 " fill-opacity="1" fill-rule="nonzero"/></g></g></g></g><path fill="#442a00" d="M 184.433594 232.890625 C 166.277344 232.890625 149.183594 230.554688 136.304688 226.308594 C 122.867188 221.878906 115.464844 215.757812 115.464844 209.070312 C 115.464844 202.382812 122.867188 196.261719 136.304688 191.832031 C 149.183594 187.585938 166.277344 185.25 184.433594 185.25 C 202.589844 185.25 219.6875 187.585938 232.566406 191.832031 C 246.003906 196.261719 253.40625 202.382812 253.40625 209.070312 C 253.40625 215.757812 246.003906 221.878906 232.566406 226.308594 C 219.683594 230.554688 202.589844 232.890625 184.433594 232.890625 Z M 184.433594 188.492188 C 145.117188 188.492188 118.703125 199.132812 118.703125 209.070312 C 118.703125 219.007812 145.117188 229.648438 184.433594 229.648438 C 223.753906 229.648438 250.164062 219.007812 250.164062 209.070312 C 250.164062 199.132812 223.753906 188.492188 184.433594 188.492188 Z M 184.433594 188.492188 " fill-opacity="1" fill-rule="nonzero"/><path fill="#ffffff" d="M 190.539062 137.292969 C 190.539062 137.695312 190.5 138.09375 190.421875 138.484375 C 190.34375 138.878906 190.226562 139.261719 190.074219 139.628906 C 189.921875 140 189.730469 140.351562 189.507812 140.683594 C 189.285156 141.019531 189.035156 141.328125 188.75 141.609375 C 188.46875 141.894531 188.160156 142.148438 187.824219 142.371094 C 187.492188 142.59375 187.140625 142.78125 186.769531 142.933594 C 186.398438 143.085938 186.019531 143.203125 185.625 143.28125 C 185.230469 143.359375 184.835938 143.398438 184.433594 143.398438 C 184.035156 143.398438 183.636719 143.359375 183.242188 143.28125 C 182.851562 143.203125 182.46875 143.085938 182.097656 142.933594 C 181.726562 142.78125 181.375 142.59375 181.042969 142.371094 C 180.710938 142.148438 180.402344 141.894531 180.117188 141.609375 C 179.835938 141.328125 179.582031 141.019531 179.359375 140.683594 C 179.136719 140.351562 178.949219 140 178.796875 139.628906 C 178.640625 139.261719 178.527344 138.878906 178.449219 138.484375 C 178.371094 138.09375 178.332031 137.695312 178.332031 137.292969 C 178.332031 136.894531 178.371094 136.496094 178.449219 136.101562 C 178.527344 135.710938 178.640625 135.328125 178.796875 134.957031 C 178.949219 134.589844 179.136719 134.234375 179.359375 133.902344 C 179.582031 133.570312 179.835938 133.261719 180.117188 132.976562 C 180.402344 132.695312 180.710938 132.441406 181.042969 132.21875 C 181.375 131.996094 181.726562 131.808594 182.097656 131.65625 C 182.46875 131.5 182.851562 131.386719 183.242188 131.308594 C 183.636719 131.230469 184.035156 131.191406 184.433594 131.191406 C 184.835938 131.191406 185.230469 131.230469 185.625 131.308594 C 186.019531 131.386719 186.398438 131.5 186.769531 131.65625 C 187.140625 131.808594 187.492188 131.996094 187.824219 132.21875 C 188.160156 132.441406 188.46875 132.695312 188.75 132.976562 C 189.035156 133.261719 189.285156 133.570312 189.507812 133.902344 C 189.730469 134.234375 189.921875 134.589844 190.074219 134.957031 C 190.226562 135.328125 190.34375 135.710938 190.421875 136.101562 C 190.5 136.496094 190.539062 136.894531 190.539062 137.292969 Z M 190.539062 137.292969 " fill-opacity="1" fill-rule="nonzero"/><g mask="url(#6c7da75e4c)"><g transform="matrix(1, 0, 0, 1, 178, 131)"><g clip-path="url(#ef2de87e2c)"><g clip-path="url(#6c348f1d10)"><path fill="#442a00" d="M 9.359375 8.648438 C 5.988281 8.648438 3.257812 5.917969 3.257812 2.546875 C 3.257812 1.996094 3.335938 1.46875 3.472656 0.960938 C 1.597656 2.003906 0.332031 4 0.332031 6.296875 C 0.332031 9.667969 3.0625 12.402344 6.433594 12.402344 C 9.253906 12.402344 11.621094 10.484375 12.320312 7.882812 C 11.445312 8.367188 10.433594 8.648438 9.359375 8.648438 Z M 9.359375 8.648438 " fill-opacity="1" fill-rule="nonzero"/></g></g></g></g><path fill="#442a00" d="M 184.433594 144.871094 C 180.257812 144.871094 176.855469 141.472656 176.855469 137.292969 C 176.855469 133.113281 180.253906 129.71875 184.433594 129.71875 C 188.609375 129.71875 192.011719 133.113281 192.011719 137.292969 C 192.011719 141.472656 188.609375 144.871094 184.433594 144.871094 Z M 184.433594 132.664062 C 181.878906 132.664062 179.804688 134.738281 179.804688 137.292969 C 179.804688 139.847656 181.878906 141.925781 184.433594 141.925781 C 186.988281 141.925781 189.066406 139.847656 189.066406 137.292969 C 189.066406 134.738281 186.988281 132.664062 184.433594 132.664062 Z M 184.433594 132.664062 " fill-opacity="1" fill-rule="nonzero"/><path fill="#ffffff" d="M 273.015625 197.792969 C 273.015625 198.15625 272.976562 198.523438 272.90625 198.886719 C 272.835938 199.25 272.730469 199.609375 272.585938 199.972656 C 272.445312 200.335938 272.269531 200.695312 272.054688 201.054688 C 271.84375 201.414062 271.59375 201.773438 271.3125 202.132812 C 271.027344 202.488281 270.710938 202.84375 270.359375 203.195312 C 270.007812 203.546875 269.621094 203.898438 269.199219 204.246094 C 268.777344 204.59375 268.324219 204.941406 267.835938 205.285156 C 267.347656 205.625 266.824219 205.964844 266.269531 206.300781 C 265.714844 206.636719 265.128906 206.96875 264.507812 207.300781 C 263.890625 207.628906 263.238281 207.953125 262.554688 208.273438 C 261.871094 208.59375 261.15625 208.910156 260.410156 209.222656 C 259.667969 209.535156 258.890625 209.84375 258.085938 210.144531 C 257.28125 210.449219 256.445312 210.746094 255.582031 211.035156 C 254.71875 211.328125 253.828125 211.617188 252.90625 211.898438 C 251.988281 212.179688 251.039062 212.453125 250.066406 212.722656 C 249.09375 212.992188 248.09375 213.257812 247.070312 213.511719 C 246.042969 213.769531 244.996094 214.023438 243.921875 214.265625 C 242.847656 214.511719 241.75 214.746094 240.628906 214.980469 C 239.507812 215.210938 238.367188 215.433594 237.199219 215.648438 C 236.035156 215.867188 234.851562 216.074219 233.644531 216.277344 C 232.441406 216.480469 231.214844 216.675781 229.972656 216.863281 C 228.730469 217.050781 227.46875 217.226562 226.191406 217.398438 C 224.910156 217.570312 223.617188 217.734375 222.308594 217.890625 C 220.996094 218.046875 219.671875 218.191406 218.332031 218.332031 C 216.992188 218.472656 215.640625 218.601562 214.277344 218.726562 C 212.910156 218.847656 211.535156 218.960938 210.148438 219.066406 C 208.761719 219.171875 207.363281 219.269531 205.957031 219.359375 C 204.550781 219.445312 203.136719 219.527344 201.714844 219.597656 C 200.292969 219.667969 198.867188 219.730469 197.429688 219.785156 C 195.996094 219.835938 194.558594 219.882812 193.117188 219.917969 C 191.675781 219.953125 190.230469 219.980469 188.78125 219.996094 C 187.332031 220.015625 185.882812 220.023438 184.433594 220.023438 C 182.984375 220.023438 181.535156 220.015625 180.089844 219.996094 C 178.640625 219.980469 177.195312 219.953125 175.753906 219.917969 C 174.308594 219.882812 172.871094 219.835938 171.4375 219.785156 C 170.003906 219.730469 168.574219 219.667969 167.152344 219.597656 C 165.730469 219.527344 164.316406 219.445312 162.910156 219.359375 C 161.503906 219.269531 160.109375 219.171875 158.722656 219.066406 C 157.332031 218.960938 155.957031 218.847656 154.59375 218.726562 C 153.226562 218.601562 151.875 218.472656 150.535156 218.332031 C 149.195312 218.191406 147.871094 218.046875 146.5625 217.890625 C 145.25 217.734375 143.957031 217.570312 142.679688 217.398438 C 141.398438 217.226562 140.140625 217.050781 138.894531 216.863281 C 137.652344 216.675781 136.425781 216.480469 135.222656 216.277344 C 134.015625 216.074219 132.832031 215.867188 131.667969 215.648438 C 130.503906 215.433594 129.359375 215.210938 128.238281 214.980469 C 127.121094 214.746094 126.023438 214.511719 124.949219 214.265625 C 123.875 214.023438 122.824219 213.769531 121.800781 213.511719 C 120.773438 213.257812 119.773438 212.992188 118.800781 212.722656 C 117.828125 212.453125 116.882812 212.179688 115.960938 211.898438 C 115.042969 211.617188 114.148438 211.328125 113.285156 211.035156 C 112.421875 210.746094 111.589844 210.449219 110.78125 210.144531 C 109.976562 209.84375 109.203125 209.535156 108.457031 209.222656 C 107.710938 208.910156 106.996094 208.59375 106.3125 208.273438 C 105.628906 207.953125 104.980469 207.628906 104.359375 207.300781 C 103.738281 206.96875 103.152344 206.636719 102.597656 206.300781 C 102.042969 205.964844 101.519531 205.625 101.03125 205.285156 C 100.542969 204.941406 100.089844 204.59375 99.667969 204.246094 C 99.25 203.898438 98.863281 203.546875 98.507812 203.195312 C 98.15625 202.84375 97.839844 202.488281 97.558594 202.132812 C 97.273438 201.773438 97.027344 201.414062 96.8125 201.054688 C 96.601562 200.695312 96.421875 200.335938 96.28125 199.972656 C 96.140625 199.609375 96.03125 199.25 95.960938 198.886719 C 95.890625 198.523438 95.855469 198.15625 95.855469 197.792969 C 95.855469 197.429688 95.890625 197.066406 95.960938 196.703125 C 96.03125 196.339844 96.140625 195.976562 96.28125 195.613281 C 96.421875 195.253906 96.601562 194.890625 96.8125 194.53125 C 97.027344 194.171875 97.273438 193.8125 97.558594 193.457031 C 97.839844 193.101562 98.15625 192.746094 98.507812 192.390625 C 98.863281 192.039062 99.25 191.6875 99.667969 191.339844 C 100.089844 190.992188 100.542969 190.648438 101.03125 190.304688 C 101.519531 189.960938 102.042969 189.621094 102.597656 189.285156 C 103.152344 188.949219 103.738281 188.617188 104.359375 188.289062 C 104.980469 187.960938 105.628906 187.636719 106.3125 187.316406 C 106.996094 186.992188 107.710938 186.675781 108.457031 186.367188 C 109.203125 186.054688 109.976562 185.746094 110.78125 185.445312 C 111.589844 185.140625 112.421875 184.84375 113.285156 184.550781 C 114.148438 184.257812 115.042969 183.972656 115.960938 183.691406 C 116.882812 183.410156 117.828125 183.132812 118.800781 182.863281 C 119.773438 182.59375 120.773438 182.332031 121.800781 182.074219 C 122.824219 181.816406 123.875 181.566406 124.949219 181.324219 C 126.023438 181.078125 127.121094 180.839844 128.238281 180.609375 C 129.359375 180.378906 130.503906 180.15625 131.667969 179.9375 C 132.832031 179.722656 134.015625 179.511719 135.222656 179.308594 C 136.425781 179.109375 137.652344 178.914062 138.894531 178.726562 C 140.140625 178.539062 141.398438 178.359375 142.679688 178.1875 C 143.957031 178.015625 145.25 177.851562 146.5625 177.699219 C 147.871094 177.542969 149.195312 177.394531 150.535156 177.253906 C 151.875 177.117188 153.226562 176.984375 154.59375 176.863281 C 155.957031 176.742188 157.332031 176.625 158.722656 176.519531 C 160.109375 176.414062 161.503906 176.316406 162.910156 176.230469 C 164.316406 176.140625 165.730469 176.0625 167.152344 175.992188 C 168.574219 175.917969 170.003906 175.859375 171.4375 175.804688 C 172.871094 175.75 174.308594 175.707031 175.753906 175.671875 C 177.195312 175.636719 178.640625 175.609375 180.089844 175.589844 C 181.535156 175.574219 182.984375 175.5625 184.433594 175.5625 C 185.882812 175.5625 187.332031 175.574219 188.78125 175.589844 C 190.230469 175.609375 191.675781 175.636719 193.117188 175.671875 C 194.558594 175.707031 195.996094 175.75 197.429688 175.804688 C 198.867188 175.859375 200.292969 175.917969 201.714844 175.992188 C 203.136719 176.0625 204.550781 176.140625 205.957031 176.230469 C 207.363281 176.316406 208.761719 176.414062 210.148438 176.519531 C 211.535156 176.625 212.910156 176.742188 214.277344 176.863281 C 215.640625 176.984375 216.992188 177.117188 218.332031 177.253906 C 219.671875 177.394531 220.996094 177.542969 222.308594 177.699219 C 223.617188 177.851562 224.910156 178.015625 226.191406 178.1875 C 227.46875 178.359375 228.730469 178.539062 229.972656 178.726562 C 231.214844 178.914062 232.441406 179.109375 233.644531 179.308594 C 234.851562 179.511719 236.035156 179.722656 237.199219 179.9375 C 238.367188 180.15625 239.507812 180.378906 240.628906 180.609375 C 241.75 180.839844 242.847656 181.078125 243.921875 181.324219 C 244.996094 181.566406 246.042969 181.816406 247.070312 182.074219 C 248.09375 182.332031 249.09375 182.59375 250.066406 182.863281 C 251.039062 183.132812 251.988281 183.410156 252.90625 183.691406 C 253.828125 183.972656 254.71875 184.257812 255.582031 184.550781 C 256.445312 184.84375 257.28125 185.140625 258.085938 185.445312 C 258.890625 185.746094 259.667969 186.054688 260.410156 186.367188 C 261.15625 186.675781 261.871094 186.992188 262.554688 187.316406 C 263.238281 187.636719 263.890625 187.960938 264.507812 188.289062 C 265.128906 188.617188 265.714844 188.949219 266.269531 189.285156 C 266.824219 189.621094 267.347656 189.960938 267.835938 190.304688 C 268.324219 190.648438 268.777344 190.992188 269.199219 191.339844 C 269.621094 191.6875 270.007812 192.039062 270.359375 192.390625 C 270.710938 192.746094 271.027344 193.101562 271.3125 193.457031 C 271.59375 193.8125 271.84375 194.171875 272.054688 194.53125 C 272.269531 194.890625 272.445312 195.253906 272.585938 195.613281 C 272.730469 195.976562 272.835938 196.339844 272.90625 196.703125 C 272.976562 197.066406 273.015625 197.429688 273.015625 197.792969 Z M 273.015625 197.792969 " fill-opacity="1" fill-rule="nonzero"/><g mask="url(#5362f1d246)"><g transform="matrix(1, 0, 0, 1, 95, 184)"><g clip-path="url(#20901d6ba9)"><g clip-path="url(#d56ffe4fa8)"><path fill="#442a00" d="M 162.328125 1.160156 C 167.269531 3.78125 170.035156 6.710938 170.035156 9.800781 C 170.035156 20.972656 133.949219 30.027344 89.433594 30.027344 C 44.921875 30.027344 8.832031 20.972656 8.832031 9.800781 C 8.832031 6.710938 11.601562 3.78125 16.542969 1.160156 C 6.652344 4.75 0.855469 9.101562 0.855469 13.792969 C 0.855469 26.070312 40.511719 36.023438 89.433594 36.023438 C 138.355469 36.023438 178.015625 26.070312 178.015625 13.792969 C 178.015625 9.097656 172.214844 4.75 162.328125 1.160156 Z M 162.328125 1.160156 " fill-opacity="1" fill-rule="nonzero"/></g></g></g></g><path fill="#442a00" d="M 184.433594 221.402344 C 160.664062 221.402344 138.300781 219.074219 121.460938 214.851562 C 109.148438 211.761719 94.476562 206.292969 94.476562 197.792969 C 94.476562 189.292969 109.152344 183.824219 121.460938 180.734375 C 138.300781 176.507812 160.664062 174.183594 184.433594 174.183594 C 208.207031 174.183594 230.566406 176.511719 247.40625 180.734375 C 259.71875 183.824219 274.394531 189.292969 274.394531 197.792969 C 274.394531 206.292969 259.714844 211.761719 247.40625 214.851562 C 230.566406 219.074219 208.207031 221.402344 184.433594 221.402344 Z M 184.433594 176.941406 C 160.882812 176.941406 138.757812 179.238281 122.132812 183.414062 C 106.542969 187.324219 97.230469 192.703125 97.230469 197.792969 C 97.230469 202.886719 106.539062 208.261719 122.132812 212.175781 C 138.757812 216.347656 160.882812 218.644531 184.433594 218.644531 C 207.984375 218.644531 230.109375 216.347656 246.734375 212.175781 C 262.328125 208.261719 271.636719 202.882812 271.636719 197.792969 C 271.636719 192.699219 262.328125 187.324219 246.734375 183.414062 C 230.109375 179.238281 207.984375 176.941406 184.433594 176.941406 Z M 184.433594 176.941406 " fill-opacity="1" fill-rule="nonzero"/><path fill="#ffffff" d="M 250.070312 197.679688 C 239.347656 204.15625 225.484375 207.496094 209.613281 208.835938 C 201.675781 209.507812 193.238281 209.675781 184.433594 209.488281 C 158.035156 210.054688 134.878906 207.390625 118.804688 197.679688 C 121.328125 185.546875 124.433594 174.21875 128.765625 164.605469 C 131.328125 158.917969 135.632812 154.210938 141.066406 151.277344 C 153.710938 144.445312 168.46875 141.800781 184.433594 141.5625 C 200.398438 141.800781 215.15625 144.445312 227.804688 151.277344 C 233.238281 154.214844 237.539062 158.917969 240.101562 164.605469 C 244.433594 174.222656 247.539062 185.546875 250.070312 197.679688 Z M 250.070312 197.679688 " fill-opacity="1" fill-rule="nonzero"/><path fill="#442a00" d="M 130.449219 191.796875 C 131.492188 185.984375 132.789062 180.359375 134.621094 174.773438 C 134.972656 173.792969 135.601562 172.382812 136.070312 171.433594 C 139.914062 163.855469 146.9375 157.871094 155.121094 155.570312 C 158.542969 154.632812 161.90625 153.933594 165.402344 153.355469 C 162.074219 155.121094 158.558594 156.550781 155.160156 158.097656 C 150.429688 160.398438 146.15625 163.65625 142.808594 167.648438 C 141.039062 169.691406 139.488281 172.085938 138.222656 174.472656 C 137.792969 175.328125 137.183594 176.601562 136.832031 177.484375 C 134.875 182.3125 132.898438 187.140625 130.449219 191.796875 Z M 130.449219 191.796875 " fill-opacity="1" fill-rule="nonzero"/><g mask="url(#95e7b7cbbd)"><g transform="matrix(1, 0, 0, 1, 184, 141)"><g clip-path="url(#a02dce06c5)"><g clip-path="url(#6d8aef0cd6)"><path fill="#442a00" d="M 66.066406 56.679688 C 62.269531 58.195312 58.496094 59.589844 54.621094 60.828125 C 45.863281 63.628906 36.617188 65.644531 25.609375 66.570312 L 25.609375 60.070312 C 25.609375 37.644531 16.527344 16.175781 0.429688 0.5625 C 3.277344 0.605469 6.085938 0.722656 8.851562 0.933594 C 13.839844 1.300781 18.6875 1.957031 23.359375 2.949219 C 30.621094 4.492188 37.476562 6.863281 43.804688 10.28125 C 49.234375 13.21875 53.535156 17.921875 56.097656 23.605469 C 60.429688 33.222656 63.539062 44.546875 66.066406 56.679688 Z M 66.066406 56.679688 " fill-opacity="1" fill-rule="nonzero"/></g></g></g></g><path fill="#ffffff" d="M 124.488281 177.015625 C 124.488281 177.015625 149.183594 186.449219 191.269531 188.78125 C 150.777344 192.597656 122.335938 182.898438 122.335938 182.898438 Z M 124.488281 177.015625 " fill-opacity="1" fill-rule="nonzero"/><path fill="#442a00" d="M 184.6875 210.238281 C 162.75 210.238281 140.425781 206.484375 118.335938 199.078125 L 117.09375 198.660156 L 117.359375 197.382812 C 120.269531 183.382812 123.46875 172.777344 127.421875 164 C 130.125 158.011719 134.71875 153.03125 140.367188 149.980469 C 152.191406 143.59375 166.597656 140.359375 184.410156 140.089844 L 184.457031 140.089844 C 202.273438 140.359375 216.679688 143.59375 228.507812 149.980469 C 234.148438 153.035156 238.746094 158.011719 241.445312 164 C 245.398438 172.773438 248.59375 183.378906 251.511719 197.382812 L 251.777344 198.65625 L 250.546875 199.074219 C 228.78125 206.484375 206.621094 210.238281 184.6875 210.238281 Z M 120.511719 196.695312 C 163.253906 210.75 206.25 210.753906 248.359375 196.703125 C 245.558594 183.546875 242.5 173.511719 238.761719 165.210938 C 236.324219 159.804688 232.1875 155.320312 227.105469 152.570312 C 215.710938 146.417969 201.753906 143.296875 184.433594 143.03125 C 167.117188 143.296875 153.160156 146.417969 141.765625 152.570312 C 136.683594 155.316406 132.546875 159.804688 130.109375 165.210938 C 126.367188 173.519531 123.308594 183.550781 120.511719 196.695312 Z M 120.511719 196.695312 " fill-opacity="1" fill-rule="nonzero"/><path fill="#442a00" d="M 250.066406 197.679688 C 246.269531 199.195312 242.496094 200.589844 238.621094 201.828125 L 238.433594 201.640625 C 238.433594 153.53125 208.039062 143.789062 192.855469 141.933594 C 197.84375 142.300781 202.691406 142.957031 207.363281 143.949219 C 214.625 145.492188 221.480469 147.863281 227.804688 151.28125 C 233.238281 154.21875 237.539062 158.921875 240.101562 164.605469 C 244.429688 174.222656 247.539062 185.546875 250.066406 197.679688 Z M 250.066406 197.679688 " fill-opacity="1" fill-rule="nonzero"/><path fill="#442a00" d="M 103.867188 194.382812 C 105.078125 198.4375 111.332031 201.28125 114.996094 202.847656 C 122.558594 205.980469 130.507812 207.8125 138.300781 210.390625 C 130.390625 210.210938 122.464844 208.675781 115.175781 205.53125 C 111.066406 203.765625 103.8125 199.445312 103.867188 194.382812 Z M 103.867188 194.382812 " fill-opacity="1" fill-rule="nonzero"/><path fill="#442a00" d="M 262.015625 185.558594 C 264.675781 188.15625 266.660156 192.1875 265.300781 195.90625 C 264.226562 198.8125 261.691406 200.730469 259.066406 202.136719 C 256.542969 203.488281 253.785156 204.414062 251.058594 205.191406 C 253.957031 204.050781 256.800781 202.753906 259.332031 200.953125 C 264.070312 197.570312 265.6875 193.203125 261.394531 188.597656 C 261.0625 188.242188 260.679688 187.875 260.304688 187.582031 C 260.304688 187.582031 262.015625 185.558594 262.015625 185.558594 Z M 262.015625 185.558594 " fill-opacity="1" fill-rule="nonzero"/><path fill="#ffffff" d="M 197.1875 147.914062 C 197.1875 147.914062 214.117188 162.386719 216.703125 187.195312 C 225.429688 185.515625 225.429688 185.515625 225.429688 185.515625 C 225.429688 185.515625 220.804688 157.742188 197.1875 147.914062 Z M 197.1875 147.914062 " fill-opacity="1" fill-rule="nonzero"/><path fill="#442a00" d="M 184.433594 191.175781 C 163.96875 191.175781 143.222656 187.839844 122.761719 181.257812 L 123.527344 178.882812 C 163.945312 191.878906 204.929688 191.878906 245.339844 178.882812 L 246.105469 181.257812 C 225.648438 187.839844 204.898438 191.175781 184.433594 191.175781 Z M 184.433594 191.175781 " fill-opacity="1" fill-rule="nonzero"/><g mask="url(#7a9aa43d29)"><g transform="matrix(1, 0, 0, 1, 118, 193)"><g clip-path="url(#4e6a8ba491)"><g clip-path="url(#ccbc918f11)"><path fill="#442a00" d="M 1.722656 0.414062 C 1.722656 0.414062 35.289062 14.695312 75.429688 15.765625 C 43.160156 16.964844 5.605469 7.625 0.804688 4.679688 C 1.722656 0.414062 1.722656 0.414062 1.722656 0.414062 Z M 1.722656 0.414062 " fill-opacity="1" fill-rule="nonzero"/></g></g></g></g></svg>